BenchTwelve-TF.ufo
<glyph name="exclam" format="1">
  <advance width="1061"/>
  <unicode hex="0021"/>
  <outline>
    <contour>
      <point x="443" y="530" type="curve" smooth="yes"/>
      <point x="615" y="530" type="line" smooth="yes"/>
      <point x="658" y="530"/>
      <point x="685" y="565"/>
      <point x="692" y="607" type="curve" smooth="yes"/>
      <point x="832" y="1459" type="line" smooth="yes"/>
      <point x="832" y="1502"/>
      <point x="798" y="1536"/>
      <point x="755" y="1536" type="curve" smooth="yes"/>
      <point x="303" y="1536" type="line" smooth="yes"/>
      <point x="260" y="1536"/>
      <point x="226" y="1502"/>
      <point x="226" y="1459" type="curve" smooth="yes"/>
      <point x="366" y="607" type="line" smooth="yes"/>
      <point x="373" y="565"/>
      <point x="400" y="530"/>
    </contour>
    <contour>
      <point x="529" y="0" type="curve" smooth="yes"/>
      <point x="760" y="0"/>
      <point x="873" y="97"/>
      <point x="873" y="193" type="curve" smooth="yes"/>
      <point x="873" y="289"/>
      <point x="756" y="385"/>
      <point x="529" y="385" type="curve" smooth="yes"/>
      <point x="302" y="385"/>
      <point x="185" y="291"/>
      <point x="185" y="193" type="curve" smooth="yes"/>
      <point x="185" y="96"/>
      <point x="300" y="0"/>
    </contour>
  </outline>
</glyph>
<glyph name="quotedbl" format="1">
  <advance width="1501"/>
  <unicode hex="0022"/>
  <outline>
    <contour>
      <point x="484" y="674" type="curve" smooth="yes"/>
      <point x="576" y="674" type="line" smooth="yes"/>
      <point x="619" y="674"/>
      <point x="646" y="709"/>
      <point x="653" y="751" type="curve" smooth="yes"/>
      <point x="793" y="1459" type="line" smooth="yes"/>
      <point x="793" y="1502"/>
      <point x="759" y="1536"/>
      <point x="716" y="1536" type="curve" smooth="yes"/>
      <point x="344" y="1536" type="line" smooth="yes"/>
      <point x="301" y="1536"/>
      <point x="267" y="1502"/>
      <point x="267" y="1459" type="curve" smooth="yes"/>
      <point x="407" y="751" type="line" smooth="yes"/>
      <point x="414" y="709"/>
      <point x="441" y="674"/>
    </contour>
    <contour>
      <point x="1136" y="674" type="curve" smooth="yes"/>
      <point x="1228" y="674" type="line" smooth="yes"/>
      <point x="1271" y="674"/>
      <point x="1298" y="709"/>
      <point x="1305" y="751" type="curve" smooth="yes"/>
      <point x="1445" y="1459" type="line" smooth="yes"/>
      <point x="1445" y="1502"/>
      <point x="1411" y="1536"/>
      <point x="1368" y="1536" type="curve" smooth="yes"/>
      <point x="996" y="1536" type="line" smooth="yes"/>
      <point x="953" y="1536"/>
      <point x="919" y="1502"/>
      <point x="919" y="1459" type="curve" smooth="yes"/>
      <point x="1059" y="751" type="line" smooth="yes"/>
      <point x="1066" y="709"/>
      <point x="1093" y="674"/>
    </contour>
  </outline>
</glyph>
<glyph name="numbersign" format="1">
  <advance width="1557.56077753"/>
  <unicode hex="0023"/>
  <outline>
    <contour>
      <point x="96" y="-205" type="curve" smooth="yes"/>
      <point x="321" y="-205" type="line" smooth="yes"/>
      <point x="343" y="-205"/>
      <point x="363" y="-191"/>
      <point x="371" y="-170" type="curve" smooth="yes"/>
      <point x="495" y="360" type="line"/>
      <point x="851" y="360" type="line"/>
      <point x="727" y="-170" type="line" smooth="yes"/>
      <point x="721" y="-187"/>
      <point x="733" y="-205"/>
      <point x="751" y="-205" type="curve" smooth="yes"/>
      <point x="976" y="-205" type="line" smooth="yes"/>
      <point x="998" y="-205"/>
      <point x="1018" y="-191"/>
      <point x="1026" y="-170" type="curve" smooth="yes"/>
      <point x="1150" y="360" type="line"/>
      <point x="1394" y="360" type="line" smooth="yes"/>
      <point x="1437" y="360"/>
      <point x="1461" y="374"/>
      <point x="1461" y="417" type="curve" smooth="yes"/>
      <point x="1461" y="522" type="line" smooth="yes"/>
      <point x="1461" y="565"/>
      <point x="1437" y="579"/>
      <point x="1394" y="579" type="curve" smooth="yes"/>
      <point x="1201" y="579" type="line"/>
      <point x="1249" y="785" type="line"/>
      <point x="1469" y="785" type="line" smooth="yes"/>
      <point x="1512" y="785"/>
      <point x="1536" y="799"/>
      <point x="1536" y="842" type="curve" smooth="yes"/>
      <point x="1536" y="949" type="line" smooth="yes"/>
      <point x="1536" y="992"/>
      <point x="1512" y="1006"/>
      <point x="1469" y="1006" type="curve" smooth="yes"/>
      <point x="1301" y="1006" type="line"/>
      <point x="1443" y="1612" type="line" smooth="yes"/>
      <point x="1449" y="1629"/>
      <point x="1437" y="1647"/>
      <point x="1419" y="1647" type="curve" smooth="yes"/>
      <point x="1194" y="1647" type="line" smooth="yes"/>
      <point x="1172" y="1647"/>
      <point x="1152" y="1633"/>
      <point x="1144" y="1612" type="curve" smooth="yes"/>
      <point x="1002" y="1006" type="line"/>
      <point x="646" y="1006" type="line"/>
      <point x="788" y="1612" type="line" smooth="yes"/>
      <point x="794" y="1629"/>
      <point x="782" y="1647"/>
      <point x="764" y="1647" type="curve" smooth="yes"/>
      <point x="539" y="1647" type="line" smooth="yes"/>
      <point x="517" y="1647"/>
      <point x="497" y="1633"/>
      <point x="489" y="1612" type="curve" smooth="yes"/>
      <point x="347" y="1006" type="line"/>
      <point x="114" y="1006" type="line" smooth="yes"/>
      <point x="71" y="1006"/>
      <point x="47" y="992"/>
      <point x="47" y="949" type="curve" smooth="yes"/>
      <point x="47" y="842" type="line" smooth="yes"/>
      <point x="47" y="799"/>
      <point x="71" y="785"/>
      <point x="114" y="785" type="curve" smooth="yes"/>
      <point x="295" y="785" type="line"/>
      <point x="247" y="579" type="line"/>
      <point x="39" y="579" type="line" smooth="yes"/>
      <point x="-4" y="579"/>
      <point x="-28" y="565"/>
      <point x="-28" y="522" type="curve" smooth="yes"/>
      <point x="-28" y="417" type="line" smooth="yes"/>
      <point x="-28" y="374"/>
      <point x="-4" y="360"/>
      <point x="39" y="360" type="curve" smooth="yes"/>
      <point x="196" y="360" type="line"/>
      <point x="72" y="-170" type="line" smooth="yes"/>
      <point x="66" y="-187"/>
      <point x="78" y="-205"/>
    </contour>
    <contour>
      <point x="546" y="579" type="line"/>
      <point x="594" y="785" type="line"/>
      <point x="950" y="785" type="line"/>
      <point x="902" y="579" type="line"/>
    </contour>
  </outline>
</glyph>
<glyph name="percent" format="1">
  <advance width="2725"/>
  <unicode hex="0025"/>
  <outline>
    <contour>
      <point x="906" y="-82" type="curve" smooth="yes"/>
      <point x="1072" y="-82" type="line" smooth="yes"/>
      <point x="1118" y="-82"/>
      <point x="1161" y="-54"/>
      <point x="1180" y="-12" type="curve" smooth="yes"/>
      <point x="1834" y="1466" type="line" smooth="yes"/>
      <point x="1849" y="1499"/>
      <point x="1825" y="1536"/>
      <point x="1788" y="1536" type="curve" smooth="yes"/>
      <point x="1623" y="1536" type="line" smooth="yes"/>
      <point x="1577" y="1536"/>
      <point x="1533" y="1508"/>
      <point x="1515" y="1466" type="curve" smooth="yes"/>
      <point x="860" y="-12" type="line" smooth="yes"/>
      <point x="845" y="-45"/>
      <point x="869" y="-82"/>
    </contour>
    <contour>
      <point x="608" y="729" type="curve" smooth="yes"/>
      <point x="495" y="729"/>
      <point x="440" y="834"/>
      <point x="440" y="1018" type="curve" smooth="yes"/>
      <point x="440" y="1206"/>
      <point x="499" y="1317"/>
      <point x="608" y="1317" type="curve" smooth="yes"/>
      <point x="716" y="1317"/>
      <point x="776" y="1206"/>
      <point x="776" y="1018" type="curve" smooth="yes"/>
      <point x="776" y="834"/>
      <point x="721" y="729"/>
    </contour>
    <contour>
      <point x="608" y="549" type="curve" smooth="yes"/>
      <point x="905" y="549"/>
      <point x="1056" y="788"/>
      <point x="1056" y="1026" type="curve" smooth="yes"/>
      <point x="1056" y="1262"/>
      <point x="909" y="1497"/>
      <point x="608" y="1497" type="curve" smooth="yes"/>
      <point x="307" y="1497"/>
      <point x="159" y="1262"/>
      <point x="159" y="1026" type="curve" smooth="yes"/>
      <point x="159" y="788"/>
      <point x="311" y="549"/>
    </contour>
    <contour>
      <point x="2105" y="133" type="curve" smooth="yes"/>
      <point x="1992" y="133"/>
      <point x="1937" y="238"/>
      <point x="1937" y="422" type="curve" smooth="yes"/>
      <point x="1937" y="610"/>
      <point x="1996" y="721"/>
      <point x="2105" y="721" type="curve" smooth="yes"/>
      <point x="2214" y="721"/>
      <point x="2273" y="610"/>
      <point x="2273" y="422" type="curve" smooth="yes"/>
      <point x="2273" y="238"/>
      <point x="2218" y="133"/>
    </contour>
    <contour>
      <point x="2105" y="-47" type="curve" smooth="yes"/>
      <point x="2402" y="-47"/>
      <point x="2554" y="193"/>
      <point x="2554" y="430" type="curve" smooth="yes"/>
      <point x="2554" y="666"/>
      <point x="2406" y="901"/>
      <point x="2105" y="901" type="curve" smooth="yes"/>
      <point x="1804" y="901"/>
      <point x="1656" y="666"/>
      <point x="1656" y="430" type="curve" smooth="yes"/>
      <point x="1656" y="193"/>
      <point x="1808" y="-47"/>
    </contour>
  </outline>
</glyph>
<glyph name="parenleft" format="1">
  <advance width="1112"/>
  <unicode hex="0028"/>
  <outline>
    <contour>
      <point x="859" y="-143" type="curve" smooth="yes"/>
      <point x="898" y="-146"/>
      <point x="936" y="-111"/>
      <point x="936" y="-73" type="curve" smooth="yes"/>
      <point x="936" y="27" type="line" smooth="yes"/>
      <point x="936" y="96"/>
      <point x="923" y="117"/>
      <point x="861" y="147" type="curve" smooth="yes"/>
      <point x="728" y="213"/>
      <point x="662" y="456"/>
      <point x="662" y="698" type="curve" smooth="yes"/>
      <point x="662" y="941"/>
      <point x="729" y="1185"/>
      <point x="861" y="1251" type="curve" smooth="yes"/>
      <point x="923" y="1282"/>
      <point x="936" y="1303"/>
      <point x="936" y="1372" type="curve" smooth="yes"/>
      <point x="936" y="1470" type="line" smooth="yes"/>
      <point x="936" y="1508"/>
      <point x="898" y="1543"/>
      <point x="859" y="1540" type="curve" smooth="yes"/>
      <point x="402" y="1499"/>
      <point x="172" y="1098"/>
      <point x="172" y="698" type="curve" smooth="yes"/>
      <point x="172" y="297"/>
      <point x="402" y="-103"/>
    </contour>
  </outline>
</glyph>
<glyph name="plus" format="1">
  <advance width="1357"/>
  <unicode hex="002B"/>
  <outline>
    <contour>
      <point x="591" y="20" type="curve" smooth="yes"/>
      <point x="763" y="20" type="line" smooth="yes"/>
      <point x="806" y="20"/>
      <point x="840" y="54"/>
      <point x="840" y="97" type="curve" smooth="yes"/>
      <point x="840" y="360" type="line" smooth="yes"/>
      <point x="840" y="380"/>
      <point x="857" y="397"/>
      <point x="877" y="397" type="curve" smooth="yes"/>
      <point x="1117" y="397" type="line" smooth="yes"/>
      <point x="1160" y="397"/>
      <point x="1194" y="431"/>
      <point x="1194" y="474" type="curve" smooth="yes"/>
      <point x="1194" y="625" type="line" smooth="yes"/>
      <point x="1194" y="668"/>
      <point x="1160" y="702"/>
      <point x="1117" y="702" type="curve" smooth="yes"/>
      <point x="877" y="702" type="line" smooth="yes"/>
      <point x="857" y="702"/>
      <point x="840" y="719"/>
      <point x="840" y="739" type="curve" smooth="yes"/>
      <point x="840" y="1002" type="line" smooth="yes"/>
      <point x="840" y="1045"/>
      <point x="806" y="1079"/>
      <point x="763" y="1079" type="curve" smooth="yes"/>
      <point x="591" y="1079" type="line" smooth="yes"/>
      <point x="548" y="1079"/>
      <point x="514" y="1045"/>
      <point x="514" y="1002" type="curve" smooth="yes"/>
      <point x="514" y="739" type="line" smooth="yes"/>
      <point x="514" y="719"/>
      <point x="497" y="702"/>
      <point x="477" y="702" type="curve" smooth="yes"/>
      <point x="233" y="702" type="line" smooth="yes"/>
      <point x="190" y="702"/>
      <point x="156" y="668"/>
      <point x="156" y="625" type="curve" smooth="yes"/>
      <point x="156" y="474" type="line" smooth="yes"/>
      <point x="156" y="431"/>
      <point x="190" y="397"/>
      <point x="233" y="397" type="curve" smooth="yes"/>
      <point x="477" y="397" type="line" smooth="yes"/>
      <point x="497" y="397"/>
      <point x="514" y="380"/>
      <point x="514" y="360" type="curve" smooth="yes"/>
      <point x="514" y="97" type="line" smooth="yes"/>
      <point x="514" y="54"/>
      <point x="548" y="20"/>
    </contour>
  </outline>
</glyph>
<glyph name="comma" format="1">
  <advance width="716"/>
  <unicode hex="002C"/>
  <outline>
    <contour>
      <point x="241" y="-342" type="curve" smooth="yes"/>
      <point x="379" y="-319"/>
      <point x="561" y="-212"/>
      <point x="561" y="25" type="curve" smooth="yes"/>
      <point x="561" y="273" type="line" smooth="yes"/>
      <point x="561" y="316"/>
      <point x="527" y="350"/>
      <point x="484" y="350" type="curve" smooth="yes"/>
      <point x="225" y="350" type="line" smooth="yes"/>
      <point x="182" y="350"/>
      <point x="165" y="316"/>
      <point x="165" y="273" type="curve" smooth="yes"/>
      <point x="165" y="70" type="line" smooth="yes"/>
      <point x="165" y="32"/>
      <point x="187" y="0"/>
      <point x="225" y="0" type="curve" smooth="yes"/>
      <point x="301" y="0" type="line" smooth="yes"/>
      <point x="316" y="0"/>
      <point x="318" y="-11"/>
      <point x="318" y="-27" type="curve" smooth="yes"/>
      <point x="318" y="-51"/>
      <point x="305" y="-128"/>
      <point x="236" y="-171" type="curve" smooth="yes"/>
      <point x="193" y="-198"/>
      <point x="165" y="-192"/>
      <point x="165" y="-246" type="curve" smooth="yes"/>
      <point x="165" y="-297" type="line" smooth="yes"/>
      <point x="165" y="-333"/>
      <point x="206" y="-348"/>
    </contour>
  </outline>
</glyph>
<glyph name="hyphen" format="1">
  <advance width="712"/>
  <unicode hex="002D"/>
  <outline>
    <contour>
      <point x="77" y="411" type="curve" smooth="yes"/>
      <point x="636" y="411" type="line" smooth="yes"/>
      <point x="679" y="411"/>
      <point x="713" y="445"/>
      <point x="713" y="488" type="curve" smooth="yes"/>
      <point x="713" y="646" type="line" smooth="yes"/>
      <point x="713" y="689"/>
      <point x="679" y="723"/>
      <point x="636" y="723" type="curve" smooth="yes"/>
      <point x="77" y="723" type="line" smooth="yes"/>
      <point x="34" y="723"/>
      <point x="0" y="689"/>
      <point x="0" y="646" type="curve" smooth="yes"/>
      <point x="0" y="488" type="line" smooth="yes"/>
      <point x="0" y="445"/>
      <point x="34" y="411"/>
    </contour>
  </outline>
</glyph>
<glyph name="slash" format="1">
  <advance width="1535"/>
  <unicode hex="002F"/>
  <outline>
    <contour>
      <point x="156" y="-205" type="curve" smooth="yes"/>
      <point x="688" y="-207" type="line" smooth="yes"/>
      <point x="710" y="-207"/>
      <point x="731" y="-193"/>
      <point x="738" y="-172" type="curve" smooth="yes"/>
      <point x="1425" y="1612" type="line" smooth="yes"/>
      <point x="1431" y="1629"/>
      <point x="1419" y="1647"/>
      <point x="1401" y="1647" type="curve" smooth="yes"/>
      <point x="869" y="1647" type="line" smooth="yes"/>
      <point x="847" y="1647"/>
      <point x="827" y="1633"/>
      <point x="819" y="1612" type="curve" smooth="yes"/>
      <point x="132" y="-170" type="line" smooth="yes"/>
      <point x="126" y="-187"/>
      <point x="138" y="-205"/>
    </contour>
  </outline>
</glyph>
<glyph name="zero" format="1">
  <advance width="2816"/>
  <unicode hex="0030"/>
  <outline>
    <contour>
      <point x="1408.0" y="356.0" type="curve" smooth="yes"/>
      <point x="1212" y="356"/>
      <point x="1125" y="438"/>
      <point x="1125" y="721" type="curve" smooth="yes"/>
      <point x="1125" y="1004"/>
      <point x="1212" y="1085"/>
      <point x="1408.0" y="1085.0" type="curve" smooth="yes"/>
      <point x="1603" y="1085"/>
      <point x="1681" y="1004"/>
      <point x="1681" y="721" type="curve" smooth="yes"/>
      <point x="1681" y="438"/>
      <point x="1603" y="356"/>
    </contour>
    <contour>
      <point x="1408.0" y="-41.0" type="curve" smooth="yes"/>
      <point x="1938.0" y="-41.0"/>
      <point x="2459" y="72"/>
      <point x="2459" y="721" type="curve" smooth="yes"/>
      <point x="2459" y="1323"/>
      <point x="1938.0" y="1475.0"/>
      <point x="1408.0" y="1475.0" type="curve" smooth="yes"/>
      <point x="877.0" y="1475.0"/>
      <point x="347" y="1323"/>
      <point x="347" y="721" type="curve" smooth="yes"/>
      <point x="347" y="72"/>
      <point x="877.0" y="-41.0"/>
    </contour>
  </outline>
</glyph>
<glyph name="one" format="1">
  <advance width="2260"/>
  <unicode hex="0031"/>
  <outline>
    <contour>
      <point x="1379" y="0" type="curve" smooth="yes"/>
      <point x="2015" y="0" type="line" smooth="yes"/>
      <point x="2058" y="0"/>
      <point x="2092" y="34"/>
      <point x="2092" y="77" type="curve" smooth="yes"/>
      <point x="2092" y="1361" type="line" smooth="yes"/>
      <point x="2092" y="1404"/>
      <point x="2058" y="1438"/>
      <point x="2015" y="1438" type="curve" smooth="yes"/>
      <point x="1064" y="1353" type="line" smooth="yes"/>
      <point x="1021" y="1353"/>
      <point x="987" y="1319"/>
      <point x="987" y="1276" type="curve" smooth="yes"/>
      <point x="987" y="1047" type="line" smooth="yes"/>
      <point x="987" y="1004"/>
      <point x="1021" y="970"/>
      <point x="1064" y="970" type="curve" smooth="yes"/>
      <point x="1265" y="989" type="line" smooth="yes"/>
      <point x="1285" y="989"/>
      <point x="1302" y="972"/>
      <point x="1302" y="952" type="curve" smooth="yes"/>
      <point x="1302" y="77" type="line" smooth="yes"/>
      <point x="1302" y="34"/>
      <point x="1336" y="0"/>
    </contour>
  </outline>
</glyph>
<glyph name="six" format="1">
  <advance width="2542"/>
  <unicode hex="0036"/>
  <outline>
    <contour>
      <point x="1266" y="-40" type="curve" smooth="yes"/>
      <point x="1871" y="-40"/>
      <point x="2305" y="56"/>
      <point x="2305" y="447" type="curve" smooth="yes"/>
      <point x="2305" y="728"/>
      <point x="2012" y="934"/>
      <point x="1357" y="934" type="curve" smooth="yes"/>
      <point x="1224" y="934"/>
      <point x="1109" y="909"/>
      <point x="983" y="890" type="curve"/>
      <point x="983" y="906" type="line"/>
      <point x="981" y="1126"/>
      <point x="1118" y="1134"/>
      <point x="1368" y="1138" type="curve" smooth="yes"/>
      <point x="1702" y="1143"/>
      <point x="2023" y="1052"/>
      <point x="2062" y="1045" type="curve"/>
      <point x="2071" y="1043"/>
      <point x="2078" y="1042"/>
      <point x="2085" y="1042" type="curve" smooth="yes"/>
      <point x="2111" y="1042"/>
      <point x="2125" y="1055"/>
      <point x="2129" y="1086" type="curve" smooth="yes"/>
      <point x="2155" y="1293" type="line" smooth="yes"/>
      <point x="2156" y="1298"/>
      <point x="2156" y="1302"/>
      <point x="2156" y="1306" type="curve" smooth="yes"/>
      <point x="2156" y="1336"/>
      <point x="2140" y="1353"/>
      <point x="2103" y="1363" type="curve"/>
      <point x="1990" y="1396"/>
      <point x="1564" y="1476"/>
      <point x="1325" y="1476" type="curve" smooth="yes"/>
      <point x="483" y="1476"/>
      <point x="177" y="1215"/>
      <point x="177" y="658" type="curve" smooth="yes"/>
      <point x="177" y="177"/>
      <point x="653" y="-40"/>
    </contour>
    <contour>
      <point x="1283" y="269" type="curve" smooth="yes"/>
      <point x="1110" y="269"/>
      <point x="981" y="299"/>
      <point x="981" y="504" type="curve" smooth="yes"/>
      <point x="981" y="633" type="line"/>
      <point x="1100" y="659"/>
      <point x="1211" y="674"/>
      <point x="1307" y="674" type="curve" smooth="yes"/>
      <point x="1506" y="674"/>
      <point x="1557" y="612"/>
      <point x="1557" y="467" type="curve" smooth="yes"/>
      <point x="1557" y="307"/>
      <point x="1453" y="269"/>
    </contour>
  </outline>
</glyph>
<glyph name="seven" format="1">
  <advance width="2260"/>
  <unicode hex="0037"/>
  <outline>
    <contour>
      <point x="1072" y="0" type="curve" smooth="yes"/>
      <point x="1658" y="0" type="line" smooth="yes"/>
      <point x="1701" y="0"/>
      <point x="1735" y="34"/>
      <point x="1735" y="77" type="curve" smooth="yes"/>
      <point x="2092" y="1361" type="line" smooth="yes"/>
      <point x="2092" y="1404"/>
      <point x="2058" y="1438"/>
      <point x="2015" y="1438" type="curve" smooth="yes"/>
      <point x="787" y="1438" type="line" smooth="yes"/>
      <point x="744" y="1438"/>
      <point x="710" y="1404"/>
      <point x="710" y="1361" type="curve" smooth="yes"/>
      <point x="710" y="1132" type="line" smooth="yes"/>
      <point x="710" y="1089"/>
      <point x="744" y="1055"/>
      <point x="787" y="1055" type="curve" smooth="yes"/>
      <point x="1245" y="1055" type="line" smooth="yes"/>
      <point x="1265" y="1055"/>
      <point x="1282" y="1038"/>
      <point x="1282" y="1018" type="curve" smooth="yes"/>
      <point x="995" y="77" type="line" smooth="yes"/>
      <point x="995" y="34"/>
      <point x="1029" y="0"/>
    </contour>
  </outline>
</glyph>
<glyph name="eight" format="1">
  <advance width="2542"/>
  <unicode hex="0038"/>
  <outline>
    <contour>
      <point x="1276" y="-41" type="curve" smooth="yes"/>
      <point x="1739" y="-41"/>
      <point x="2225" y="55"/>
      <point x="2225" y="446" type="curve" smooth="yes"/>
      <point x="2225" y="639"/>
      <point x="2137" y="735"/>
      <point x="1948" y="805" type="curve"/>
      <point x="2066" y="846"/>
      <point x="2137" y="959"/>
      <point x="2137" y="1083" type="curve" smooth="yes"/>
      <point x="2137" y="1407"/>
      <point x="1674" y="1475"/>
      <point x="1275" y="1475" type="curve" smooth="yes"/>
      <point x="874" y="1475"/>
      <point x="404" y="1404"/>
      <point x="404" y="1073" type="curve" smooth="yes"/>
      <point x="404" y="948"/>
      <point x="490" y="856"/>
      <point x="616" y="805" type="curve"/>
      <point x="444" y="762"/>
      <point x="317" y="638"/>
      <point x="317" y="446" type="curve" smooth="yes"/>
      <point x="317" y="21"/>
      <point x="811" y="-41"/>
    </contour>
    <contour>
      <point x="1276" y="217" type="curve" smooth="yes"/>
      <point x="1103" y="217"/>
      <point x="935" y="299"/>
      <point x="935" y="486" type="curve" smooth="yes"/>
      <point x="935" y="570"/>
      <point x="950" y="669"/>
      <point x="979" y="708" type="curve"/>
      <point x="1171" y="658"/>
      <point x="1597" y="725"/>
      <point x="1597" y="466" type="curve" smooth="yes"/>
      <point x="1597" y="279"/>
      <point x="1446" y="217"/>
    </contour>
    <contour>
      <point x="1546" y="865" type="curve" smooth="yes"/>
      <point x="1157" y="879"/>
      <point x="966" y="923"/>
      <point x="966" y="1093" type="curve" smooth="yes"/>
      <point x="966" y="1230"/>
      <point x="1127" y="1273"/>
      <point x="1275" y="1273" type="curve" smooth="yes"/>
      <point x="1421" y="1273"/>
      <point x="1586" y="1211"/>
      <point x="1586" y="1074" type="curve" smooth="yes"/>
      <point x="1586" y="1009"/>
      <point x="1577" y="896"/>
    </contour>
  </outline>
</glyph>
<glyph name="nine" format="1">
  <advance width="2542"/>
  <unicode hex="0039"/>
  <outline>
    <contour>
      <point x="1157" y="-40" type="curve" smooth="yes"/>
      <point x="1999" y="-40"/>
      <point x="2305" y="221"/>
      <point x="2305" y="778" type="curve" smooth="yes"/>
      <point x="2305" y="1259"/>
      <point x="1829" y="1476"/>
      <point x="1216" y="1476" type="curve" smooth="yes"/>
      <point x="611" y="1476"/>
      <point x="177" y="1380"/>
      <point x="177" y="989" type="curve" smooth="yes"/>
      <point x="177" y="708"/>
      <point x="470" y="502"/>
      <point x="1125" y="502" type="curve" smooth="yes"/>
      <point x="1258" y="502"/>
      <point x="1373" y="527"/>
      <point x="1499" y="546" type="curve"/>
      <point x="1499" y="530" type="line"/>
      <point x="1501" y="310"/>
      <point x="1364" y="302"/>
      <point x="1114" y="298" type="curve" smooth="yes"/>
      <point x="780" y="293"/>
      <point x="459" y="384"/>
      <point x="420" y="391" type="curve"/>
      <point x="411" y="393"/>
      <point x="404" y="394"/>
      <point x="397" y="394" type="curve" smooth="yes"/>
      <point x="371" y="394"/>
      <point x="357" y="381"/>
      <point x="353" y="350" type="curve" smooth="yes"/>
      <point x="327" y="143" type="line" smooth="yes"/>
      <point x="326" y="138"/>
      <point x="326" y="134"/>
      <point x="326" y="130" type="curve" smooth="yes"/>
      <point x="326" y="100"/>
      <point x="342" y="83"/>
      <point x="379" y="73" type="curve"/>
      <point x="492" y="40"/>
      <point x="918" y="-40"/>
    </contour>
    <contour>
      <point x="1175" y="762" type="curve" smooth="yes"/>
      <point x="976" y="762"/>
      <point x="925" y="824"/>
      <point x="925" y="969" type="curve" smooth="yes"/>
      <point x="925" y="1129"/>
      <point x="1029" y="1167"/>
      <point x="1199" y="1167" type="curve" smooth="yes"/>
      <point x="1372" y="1167"/>
      <point x="1501" y="1137"/>
      <point x="1501" y="932" type="curve" smooth="yes"/>
      <point x="1501" y="803" type="line"/>
      <point x="1382" y="777"/>
      <point x="1271" y="762"/>
    </contour>
  </outline>
</glyph>
<glyph name="colon" format="1">
  <advance width="712"/>
  <unicode hex="003A"/>
  <outline>
    <contour>
      <point x="240.0" y="0.0" type="curve" smooth="yes"/>
      <point x="467.0" y="0.0" type="line" smooth="yes"/>
      <point x="510.0" y="0.0"/>
      <point x="544.0" y="34.0"/>
      <point x="544.0" y="77.0" type="curve" smooth="yes"/>
      <point x="544.0" y="273.0" type="line" smooth="yes"/>
      <point x="544.0" y="316.0"/>
      <point x="510.0" y="350.0"/>
      <point x="467.0" y="350.0" type="curve" smooth="yes"/>
      <point x="240.0" y="350.0" type="line" smooth="yes"/>
      <point x="197.0" y="350.0"/>
      <point x="163.0" y="316.0"/>
      <point x="163.0" y="273.0" type="curve" smooth="yes"/>
      <point x="163.0" y="77.0" type="line" smooth="yes"/>
      <point x="163.0" y="34.0"/>
      <point x="197.0" y="0.0"/>
    </contour>
    <contour>
      <point x="240.0" y="656.0" type="curve" smooth="yes"/>
      <point x="467.0" y="656.0" type="line" smooth="yes"/>
      <point x="510.0" y="656.0"/>
      <point x="544.0" y="690.0"/>
      <point x="544.0" y="733.0" type="curve" smooth="yes"/>
      <point x="544.0" y="929.0" type="line" smooth="yes"/>
      <point x="544.0" y="972.0"/>
      <point x="510.0" y="1006.0"/>
      <point x="467.0" y="1006.0" type="curve" smooth="yes"/>
      <point x="240.0" y="1006.0" type="line" smooth="yes"/>
      <point x="197.0" y="1006.0"/>
      <point x="163.0" y="972.0"/>
      <point x="163.0" y="929.0" type="curve" smooth="yes"/>
      <point x="163.0" y="733.0" type="line" smooth="yes"/>
      <point x="163.0" y="690.0"/>
      <point x="197.0" y="656.0"/>
    </contour>
  </outline>
</glyph>
<glyph name="semicolon" format="1">
  <advance width="716"/>
  <unicode hex="003B"/>
  <outline>
    <contour>
      <point x="241.0" y="-342.0" type="curve" smooth="yes"/>
      <point x="379.0" y="-319.0"/>
      <point x="561.0" y="-212.0"/>
      <point x="561.0" y="25.0" type="curve" smooth="yes"/>
      <point x="561.0" y="273.0" type="line" smooth="yes"/>
      <point x="561.0" y="316.0"/>
      <point x="527.0" y="350.0"/>
      <point x="484.0" y="350.0" type="curve" smooth="yes"/>
      <point x="225.0" y="350.0" type="line" smooth="yes"/>
      <point x="182.0" y="350.0"/>
      <point x="165.0" y="316.0"/>
      <point x="165.0" y="273.0" type="curve" smooth="yes"/>
      <point x="165.0" y="70.0" type="line" smooth="yes"/>
      <point x="165.0" y="32.0"/>
      <point x="187.0" y="0.0"/>
      <point x="225.0" y="0.0" type="curve" smooth="yes"/>
      <point x="301.0" y="0.0" type="line" smooth="yes"/>
      <point x="316.0" y="0.0"/>
      <point x="318.0" y="-11.0"/>
      <point x="318.0" y="-27.0" type="curve" smooth="yes"/>
      <point x="318.0" y="-51.0"/>
      <point x="305.0" y="-128.0"/>
      <point x="236.0" y="-171.0" type="curve" smooth="yes"/>
      <point x="193.0" y="-198.0"/>
      <point x="165.0" y="-192.0"/>
      <point x="165.0" y="-246.0" type="curve" smooth="yes"/>
      <point x="165.0" y="-297.0" type="line" smooth="yes"/>
      <point x="165.0" y="-333.0"/>
      <point x="206.0" y="-348.0"/>
    </contour>
    <contour>
      <point x="240" y="656" type="curve" smooth="yes"/>
      <point x="467" y="656" type="line" smooth="yes"/>
      <point x="510" y="656"/>
      <point x="544" y="690"/>
      <point x="544" y="733" type="curve" smooth="yes"/>
      <point x="544" y="929" type="line" smooth="yes"/>
      <point x="544" y="972"/>
      <point x="510" y="1006"/>
      <point x="467" y="1006" type="curve" smooth="yes"/>
      <point x="240" y="1006" type="line" smooth="yes"/>
      <point x="197" y="1006"/>
      <point x="163" y="972"/>
      <point x="163" y="929" type="curve" smooth="yes"/>
      <point x="163" y="733" type="line" smooth="yes"/>
      <point x="163" y="690"/>
      <point x="197" y="656"/>
    </contour>
  </outline>
</glyph>
<glyph name="less" format="1">
  <advance width="2071"/>
  <unicode hex="003C"/>
  <outline>
    <contour>
      <point x="1488" y="-100" type="curve" smooth="yes"/>
      <point x="1511" y="-100"/>
      <point x="1533" y="-81"/>
      <point x="1533" y="-54" type="curve" smooth="yes"/>
      <point x="1533" y="326" type="line" smooth="yes"/>
      <point x="1533" y="372"/>
      <point x="1505" y="416"/>
      <point x="1464" y="436" type="curve" smooth="yes"/>
      <point x="958" y="674" type="line" smooth="yes"/>
      <point x="951" y="677"/>
      <point x="948" y="684"/>
      <point x="948" y="690" type="curve" smooth="yes"/>
      <point x="948" y="696"/>
      <point x="951" y="702"/>
      <point x="958" y="706" type="curve"/>
      <point x="1464" y="942" type="line" smooth="yes"/>
      <point x="1505" y="961"/>
      <point x="1533" y="1005"/>
      <point x="1533" y="1051" type="curve" smooth="yes"/>
      <point x="1533" y="1461" type="line" smooth="yes"/>
      <point x="1533" y="1488"/>
      <point x="1511" y="1507"/>
      <point x="1487" y="1507" type="curve" smooth="yes"/>
      <point x="1479" y="1507"/>
      <point x="1472" y="1506"/>
      <point x="1465" y="1502" type="curve" smooth="yes"/>
      <point x="595" y="1035" type="line" smooth="yes"/>
      <point x="554" y="1013"/>
      <point x="527" y="969"/>
      <point x="527" y="922" type="curve" smooth="yes"/>
      <point x="527" y="505" type="line" smooth="yes"/>
      <point x="527" y="458"/>
      <point x="554" y="413"/>
      <point x="594" y="391" type="curve" smooth="yes"/>
      <point x="1466" y="-94" type="line" smooth="yes"/>
      <point x="1473" y="-98"/>
      <point x="1481" y="-100"/>
    </contour>
  </outline>
</glyph>
<glyph name="equal" format="1">
  <advance width="987"/>
  <unicode hex="003D"/>
  <outline>
    <contour>
      <point x="187" y="213" type="curve" smooth="yes"/>
      <point x="799" y="213" type="line" smooth="yes"/>
      <point x="842" y="213"/>
      <point x="876" y="247"/>
      <point x="876" y="290" type="curve" smooth="yes"/>
      <point x="876" y="391" type="line" smooth="yes"/>
      <point x="876" y="434"/>
      <point x="842" y="468"/>
      <point x="799" y="468" type="curve" smooth="yes"/>
      <point x="187" y="468" type="line" smooth="yes"/>
      <point x="144" y="468"/>
      <point x="110" y="434"/>
      <point x="110" y="391" type="curve" smooth="yes"/>
      <point x="110" y="290" type="line" smooth="yes"/>
      <point x="110" y="247"/>
      <point x="144" y="213"/>
    </contour>
    <contour>
      <point x="187" y="622" type="curve" smooth="yes"/>
      <point x="799" y="622" type="line" smooth="yes"/>
      <point x="842" y="622"/>
      <point x="876" y="656"/>
      <point x="876" y="699" type="curve" smooth="yes"/>
      <point x="876" y="800" type="line" smooth="yes"/>
      <point x="876" y="843"/>
      <point x="842" y="877"/>
      <point x="799" y="877" type="curve" smooth="yes"/>
      <point x="187" y="877" type="line" smooth="yes"/>
      <point x="144" y="877"/>
      <point x="110" y="843"/>
      <point x="110" y="800" type="curve" smooth="yes"/>
      <point x="110" y="699" type="line" smooth="yes"/>
      <point x="110" y="656"/>
      <point x="144" y="622"/>
    </contour>
  </outline>
</glyph>
<glyph name="greater" format="1">
  <advance width="2071"/>
  <unicode hex="003E"/>
  <outline>
    <contour>
      <point x="573" y="-100" type="curve" smooth="yes"/>
      <point x="581" y="-100"/>
      <point x="588" y="-99"/>
      <point x="595" y="-95" type="curve" smooth="yes"/>
      <point x="1465" y="372" type="line" smooth="yes"/>
      <point x="1506" y="394"/>
      <point x="1533" y="438"/>
      <point x="1533" y="485" type="curve" smooth="yes"/>
      <point x="1533" y="902" type="line" smooth="yes"/>
      <point x="1533" y="949"/>
      <point x="1506" y="994"/>
      <point x="1466" y="1016" type="curve" smooth="yes"/>
      <point x="594" y="1501" type="line" smooth="yes"/>
      <point x="587" y="1505"/>
      <point x="579" y="1507"/>
      <point x="572" y="1507" type="curve" smooth="yes"/>
      <point x="549" y="1507"/>
      <point x="527" y="1488"/>
      <point x="527" y="1461" type="curve" smooth="yes"/>
      <point x="527" y="1081" type="line" smooth="yes"/>
      <point x="527" y="1035"/>
      <point x="555" y="991"/>
      <point x="596" y="971" type="curve" smooth="yes"/>
      <point x="1102" y="733" type="line" smooth="yes"/>
      <point x="1109" y="730"/>
      <point x="1112" y="723"/>
      <point x="1112" y="717" type="curve" smooth="yes"/>
      <point x="1112" y="711"/>
      <point x="1109" y="705"/>
      <point x="1102" y="701" type="curve"/>
      <point x="596" y="465" type="line" smooth="yes"/>
      <point x="555" y="446"/>
      <point x="527" y="402"/>
      <point x="527" y="356" type="curve" smooth="yes"/>
      <point x="527" y="-54" type="line" smooth="yes"/>
      <point x="527" y="-81"/>
      <point x="549" y="-100"/>
    </contour>
  </outline>
</glyph>
<glyph name="A" format="1">
  <advance width="2627"/>
  <unicode hex="0041"/>
  <outline>
    <contour>
      <point x="199" y="0" type="curve" smooth="yes"/>
      <point x="740" y="0" type="line" smooth="yes"/>
      <point x="786" y="0"/>
      <point x="820" y="15"/>
      <point x="838" y="57" type="curve"/>
      <point x="873" y="153" type="line"/>
      <point x="882" y="173"/>
      <point x="882" y="186"/>
      <point x="915" y="186" type="curve" smooth="yes"/>
      <point x="1535" y="186" type="line" smooth="yes"/>
      <point x="1568" y="186"/>
      <point x="1568" y="174"/>
      <point x="1578" y="154" type="curve"/>
      <point x="1617" y="56" type="line"/>
      <point x="1637" y="15"/>
      <point x="1673" y="0"/>
      <point x="1719" y="0" type="curve" smooth="yes"/>
      <point x="2427" y="0" type="line" smooth="yes"/>
      <point x="2455" y="0"/>
      <point x="2476" y="23"/>
      <point x="2476" y="48" type="curve" smooth="yes"/>
      <point x="2476" y="55"/>
      <point x="2474" y="62"/>
      <point x="2471" y="69" type="curve" smooth="yes"/>
      <point x="1849" y="1369" type="line" smooth="yes"/>
      <point x="1829" y="1410"/>
      <point x="1785" y="1438"/>
      <point x="1739" y="1438" type="curve" smooth="yes"/>
      <point x="899" y="1438" type="line" smooth="yes"/>
      <point x="853" y="1438"/>
      <point x="809" y="1410"/>
      <point x="788" y="1369" type="curve" smooth="yes"/>
      <point x="156" y="69" type="line"/>
      <point x="152" y="62"/>
      <point x="151" y="55"/>
      <point x="151" y="48" type="curve" smooth="yes"/>
      <point x="151" y="23"/>
      <point x="171" y="0"/>
    </contour>
    <contour>
      <point x="1071" y="544" type="line" smooth="yes"/>
      <point x="1057" y="544"/>
      <point x="1046" y="556"/>
      <point x="1046" y="569" type="curve" smooth="yes"/>
      <point x="1046" y="572"/>
      <point x="1047" y="575"/>
      <point x="1048" y="578" type="curve"/>
      <point x="1226" y="1008" type="line"/>
      <point x="1229" y="1014"/>
      <point x="1234" y="1017"/>
      <point x="1240" y="1017" type="curve" smooth="yes"/>
      <point x="1245" y="1017"/>
      <point x="1251" y="1014"/>
      <point x="1253" y="1007" type="curve"/>
      <point x="1424" y="579" type="line" smooth="yes"/>
      <point x="1425" y="576"/>
      <point x="1426" y="572"/>
      <point x="1426" y="569" type="curve" smooth="yes"/>
      <point x="1426" y="556"/>
      <point x="1415" y="544"/>
      <point x="1400" y="544" type="curve" smooth="yes"/>
    </contour>
  </outline>
</glyph>
<glyph name="B" format="1">
  <advance width="2490"/>
  <unicode hex="0042"/>
  <outline>
    <contour>
      <point x="276" y="0" type="curve" smooth="yes"/>
      <point x="1393" y="0" type="line" smooth="yes"/>
      <point x="1892" y="0"/>
      <point x="2316" y="96"/>
      <point x="2316" y="424" type="curve" smooth="yes"/>
      <point x="2316" y="590"/>
      <point x="2206" y="694"/>
      <point x="2052" y="757" type="curve" smooth="yes"/>
      <point x="2037" y="763"/>
      <point x="2036" y="780"/>
      <point x="2049" y="788" type="curve" smooth="yes"/>
      <point x="2151" y="848"/>
      <point x="2218" y="929"/>
      <point x="2218" y="1040" type="curve" smooth="yes"/>
      <point x="2218" y="1339"/>
      <point x="1866" y="1436"/>
      <point x="1438" y="1436" type="curve" smooth="yes"/>
      <point x="276" y="1436" type="line" smooth="yes"/>
      <point x="233" y="1436"/>
      <point x="199" y="1402"/>
      <point x="199" y="1359" type="curve" smooth="yes"/>
      <point x="199" y="77" type="line" smooth="yes"/>
      <point x="199" y="34"/>
      <point x="233" y="0"/>
    </contour>
    <contour>
      <point x="983" y="365" type="line" smooth="yes"/>
      <point x="963" y="365"/>
      <point x="946" y="382"/>
      <point x="946" y="402" type="curve" smooth="yes"/>
      <point x="946" y="606" type="line" smooth="yes"/>
      <point x="946" y="626"/>
      <point x="963" y="643"/>
      <point x="983" y="643" type="curve" smooth="yes"/>
      <point x="1255" y="643" type="line" smooth="yes"/>
      <point x="1466" y="643"/>
      <point x="1552" y="631"/>
      <point x="1552" y="510" type="curve" smooth="yes"/>
      <point x="1552" y="375"/>
      <point x="1391" y="365"/>
      <point x="1204" y="365" type="curve" smooth="yes"/>
    </contour>
    <contour>
      <point x="983" y="866" type="line" smooth="yes"/>
      <point x="963" y="866"/>
      <point x="946" y="883"/>
      <point x="946" y="903" type="curve" smooth="yes"/>
      <point x="946" y="1087" type="line" smooth="yes"/>
      <point x="946" y="1107"/>
      <point x="963" y="1124"/>
      <point x="983" y="1124" type="curve" smooth="yes"/>
      <point x="1192" y="1124" type="line" smooth="yes"/>
      <point x="1358" y="1124"/>
      <point x="1503" y="1124"/>
      <point x="1503" y="989" type="curve" smooth="yes"/>
      <point x="1503" y="889"/>
      <point x="1434" y="870"/>
      <point x="1272" y="866" type="curve" smooth="yes"/>
    </contour>
  </outline>
</glyph>
<glyph name="C" format="1">
  <advance width="2591"/>
  <unicode hex="0043"/>
  <outline>
    <contour>
      <point x="1383" y="-41" type="curve" smooth="yes"/>
      <point x="1830" y="-41"/>
      <point x="2411" y="59"/>
      <point x="2411" y="442" type="curve" smooth="yes"/>
      <point x="2411" y="456"/>
      <point x="2409" y="471"/>
      <point x="2407" y="486" type="curve" smooth="yes"/>
      <point x="2403" y="510"/>
      <point x="2382" y="529"/>
      <point x="2358" y="531" type="curve" smooth="yes"/>
      <point x="1868" y="572" type="line" smooth="yes"/>
      <point x="1811" y="577"/>
      <point x="1778" y="559"/>
      <point x="1753" y="507" type="curve" smooth="yes"/>
      <point x="1709" y="420"/>
      <point x="1612" y="365"/>
      <point x="1383" y="365" type="curve" smooth="yes"/>
      <point x="1135" y="371"/>
      <point x="982" y="451"/>
      <point x="982" y="719" type="curve" smooth="yes"/>
      <point x="982" y="987"/>
      <point x="1135" y="1067"/>
      <point x="1383" y="1073" type="curve" smooth="yes"/>
      <point x="1591" y="1073"/>
      <point x="1692" y="1031"/>
      <point x="1745" y="949" type="curve" smooth="yes"/>
      <point x="1778" y="898"/>
      <point x="1811" y="881"/>
      <point x="1871" y="886" type="curve" smooth="yes"/>
      <point x="2383" y="921" type="line"/>
      <point x="2388" y="922"/>
      <point x="2394" y="927"/>
      <point x="2395" y="933" type="curve"/>
      <point x="2395" y="937"/>
      <point x="2395" y="941"/>
      <point x="2395" y="946" type="curve"/>
      <point x="2370" y="1358"/>
      <point x="1846" y="1475"/>
      <point x="1383" y="1475" type="curve" smooth="yes"/>
      <point x="783" y="1475"/>
      <point x="165" y="1331"/>
      <point x="165" y="719" type="curve" smooth="yes"/>
      <point x="165" y="106"/>
      <point x="783" y="-41"/>
    </contour>
  </outline>
</glyph>
<glyph name="D" format="1">
  <advance width="2533"/>
  <unicode hex="0044"/>
  <outline>
    <contour>
      <point x="983" y="379" type="curve" smooth="yes"/>
      <point x="963" y="379"/>
      <point x="946" y="396"/>
      <point x="946" y="416" type="curve" smooth="yes"/>
      <point x="946" y="620"/>
      <point x="946" y="824"/>
      <point x="946" y="1028" type="curve" smooth="yes"/>
      <point x="946" y="1048"/>
      <point x="963" y="1065"/>
      <point x="983" y="1065" type="curve" smooth="yes"/>
      <point x="1046" y="1066"/>
      <point x="1162" y="1067"/>
      <point x="1225" y="1067" type="curve" smooth="yes"/>
      <point x="1421" y="1067"/>
      <point x="1620" y="1030"/>
      <point x="1620" y="729" type="curve" smooth="yes"/>
      <point x="1620" y="411"/>
      <point x="1458" y="379"/>
      <point x="1192" y="379" type="curve" smooth="yes"/>
      <point x="1128" y="379"/>
      <point x="1058" y="378"/>
    </contour>
    <contour>
      <point x="276" y="0" type="curve" smooth="yes"/>
      <point x="1208" y="0"/>
      <point x="1240" y="0"/>
      <point x="1272" y="0" type="curve" smooth="yes"/>
      <point x="1870" y="0"/>
      <point x="2357" y="18"/>
      <point x="2357" y="733" type="curve" smooth="yes"/>
      <point x="2357" y="1262"/>
      <point x="1913" y="1436"/>
      <point x="1393" y="1436" type="curve" smooth="yes"/>
      <point x="276" y="1436" type="line" smooth="yes"/>
      <point x="233" y="1436"/>
      <point x="199" y="1402"/>
      <point x="199" y="1359" type="curve" smooth="yes"/>
      <point x="199" y="77" type="line" smooth="yes"/>
      <point x="199" y="34"/>
      <point x="233" y="0"/>
    </contour>
  </outline>
</glyph>
<glyph name="E" format="1">
  <advance width="2381"/>
  <unicode hex="0045"/>
  <outline>
    <contour>
      <point x="277" y="0" type="curve" smooth="yes"/>
      <point x="2118" y="0" type="line" smooth="yes"/>
      <point x="2161" y="0"/>
      <point x="2195" y="34"/>
      <point x="2195" y="77" type="curve" smooth="yes"/>
      <point x="2195" y="293" type="line" smooth="yes"/>
      <point x="2195" y="336"/>
      <point x="2161" y="370"/>
      <point x="2118" y="370" type="curve" smooth="yes"/>
      <point x="1023" y="370" type="line" smooth="yes"/>
      <point x="1003" y="370"/>
      <point x="990" y="377"/>
      <point x="990" y="397" type="curve" smooth="yes"/>
      <point x="990" y="559" type="line" smooth="yes"/>
      <point x="990" y="579"/>
      <point x="1003" y="586"/>
      <point x="1023" y="586" type="curve" smooth="yes"/>
      <point x="1961" y="586" type="line" smooth="yes"/>
      <point x="2004" y="586"/>
      <point x="2038" y="620"/>
      <point x="2038" y="663" type="curve" smooth="yes"/>
      <point x="2038" y="793" type="line" smooth="yes"/>
      <point x="2038" y="836"/>
      <point x="2004" y="870"/>
      <point x="1961" y="870" type="curve" smooth="yes"/>
      <point x="1023" y="870" type="line" smooth="yes"/>
      <point x="1003" y="870"/>
      <point x="990" y="877"/>
      <point x="990" y="897" type="curve" smooth="yes"/>
      <point x="990" y="1034" type="line" smooth="yes"/>
      <point x="990" y="1054"/>
      <point x="1003" y="1061"/>
      <point x="1023" y="1061" type="curve" smooth="yes"/>
      <point x="2045" y="1061" type="line" smooth="yes"/>
      <point x="2088" y="1061"/>
      <point x="2122" y="1095"/>
      <point x="2122" y="1138" type="curve" smooth="yes"/>
      <point x="2122" y="1361" type="line" smooth="yes"/>
      <point x="2122" y="1404"/>
      <point x="2088" y="1438"/>
      <point x="2045" y="1438" type="curve" smooth="yes"/>
      <point x="277" y="1438" type="line" smooth="yes"/>
      <point x="234" y="1438"/>
      <point x="200" y="1404"/>
      <point x="200" y="1361" type="curve" smooth="yes"/>
      <point x="200" y="77" type="line" smooth="yes"/>
      <point x="200" y="34"/>
      <point x="234" y="0"/>
    </contour>
  </outline>
</glyph>
<glyph name="F" format="1">
  <advance width="2305"/>
  <unicode hex="0046"/>
  <outline>
    <contour>
      <point x="277" y="0" type="curve" smooth="yes"/>
      <point x="913" y="0" type="line" smooth="yes"/>
      <point x="956" y="0"/>
      <point x="990" y="34"/>
      <point x="990" y="77" type="curve" smooth="yes"/>
      <point x="990" y="475" type="line" smooth="yes"/>
      <point x="990" y="495"/>
      <point x="1007" y="512"/>
      <point x="1027" y="512" type="curve" smooth="yes"/>
      <point x="1734" y="512" type="line" smooth="yes"/>
      <point x="1777" y="512"/>
      <point x="1811" y="546"/>
      <point x="1811" y="589" type="curve" smooth="yes"/>
      <point x="1811" y="738" type="line" smooth="yes"/>
      <point x="1811" y="781"/>
      <point x="1777" y="815"/>
      <point x="1734" y="815" type="curve" smooth="yes"/>
      <point x="1027" y="815" type="line" smooth="yes"/>
      <point x="1007" y="815"/>
      <point x="990" y="832"/>
      <point x="990" y="852" type="curve" smooth="yes"/>
      <point x="990" y="1018" type="line" smooth="yes"/>
      <point x="990" y="1038"/>
      <point x="1007" y="1055"/>
      <point x="1027" y="1055" type="curve" smooth="yes"/>
      <point x="2076" y="1055" type="line" smooth="yes"/>
      <point x="2119" y="1055"/>
      <point x="2153" y="1089"/>
      <point x="2153" y="1132" type="curve" smooth="yes"/>
      <point x="2153" y="1361" type="line" smooth="yes"/>
      <point x="2153" y="1404"/>
      <point x="2119" y="1438"/>
      <point x="2076" y="1438" type="curve" smooth="yes"/>
      <point x="277" y="1438" type="line" smooth="yes"/>
      <point x="234" y="1438"/>
      <point x="200" y="1404"/>
      <point x="200" y="1361" type="curve" smooth="yes"/>
      <point x="200" y="77" type="line" smooth="yes"/>
      <point x="200" y="34"/>
      <point x="234" y="0"/>
    </contour>
  </outline>
</glyph>
<glyph name="G" format="1">
  <advance width="2590"/>
  <unicode hex="0047"/>
  <outline>
    <contour>
      <point x="1283" y="-41" type="curve" smooth="yes"/>
      <point x="1457" y="-41"/>
      <point x="1900" y="-20"/>
      <point x="2073" y="276" type="curve" smooth="yes"/>
      <point x="2077" y="283"/>
      <point x="2083" y="286"/>
      <point x="2089" y="286" type="curve" smooth="yes"/>
      <point x="2095" y="286"/>
      <point x="2102" y="282"/>
      <point x="2105" y="274" type="curve"/>
      <point x="2194" y="70" type="line" smooth="yes"/>
      <point x="2220" y="11"/>
      <point x="2268" y="0"/>
      <point x="2314" y="0" type="curve" smooth="yes"/>
      <point x="2357" y="0"/>
      <point x="2391" y="34"/>
      <point x="2391" y="77" type="curve" smooth="yes"/>
      <point x="2391" y="703" type="line" smooth="yes"/>
      <point x="2391" y="746"/>
      <point x="2357" y="780"/>
      <point x="2314" y="780" type="curve" smooth="yes"/>
      <point x="1522" y="780" type="line" smooth="yes"/>
      <point x="1479" y="780"/>
      <point x="1445" y="746"/>
      <point x="1445" y="703" type="curve" smooth="yes"/>
      <point x="1445" y="624" type="line" smooth="yes"/>
      <point x="1445" y="581"/>
      <point x="1479" y="547"/>
      <point x="1522" y="547" type="curve" smooth="yes"/>
      <point x="1715" y="547" type="line" smooth="yes"/>
      <point x="1728" y="547"/>
      <point x="1739" y="534"/>
      <point x="1739" y="521" type="curve" smooth="yes"/>
      <point x="1739" y="518"/>
      <point x="1706" y="352"/>
      <point x="1367" y="352" type="curve" smooth="yes"/>
      <point x="1125" y="352"/>
      <point x="982" y="465"/>
      <point x="982" y="719" type="curve" smooth="yes"/>
      <point x="982" y="987"/>
      <point x="1135" y="1085"/>
      <point x="1383" y="1091" type="curve" smooth="yes"/>
      <point x="1586" y="1091"/>
      <point x="1687" y="1037"/>
      <point x="1741" y="967" type="curve" smooth="yes"/>
      <point x="1775" y="921"/>
      <point x="1802" y="905"/>
      <point x="1853" y="905" type="curve" smooth="yes"/>
      <point x="1860" y="905"/>
      <point x="1868" y="905"/>
      <point x="2382" y="941" type="curve"/>
      <point x="2388" y="942"/>
      <point x="2395" y="947"/>
      <point x="2395" y="953" type="curve" smooth="yes"/>
      <point x="2394.68181817" y="962.340909369"/>
      <point x="2394.09452476" y="971.526860052"/>
      <point x="2393.24508116" y="980.560070774" type="curve" smooth="yes"/>
      <point x="2356.71900754" y="1368.98811998"/>
      <point x="1835.47727241" y="1475.0"/>
      <point x="1383" y="1475" type="curve" smooth="yes"/>
      <point x="783" y="1475"/>
      <point x="165" y="1331"/>
      <point x="165" y="719" type="curve" smooth="yes"/>
      <point x="165" y="160"/>
      <point x="707" y="-41"/>
    </contour>
  </outline>
</glyph>
<glyph name="H" format="1">
  <advance width="2532"/>
  <unicode hex="0048"/>
  <outline>
    <contour>
      <point x="277" y="0" type="curve" smooth="yes"/>
      <point x="850" y="0" type="line" smooth="yes"/>
      <point x="893" y="0"/>
      <point x="927" y="34"/>
      <point x="927" y="77" type="curve" smooth="yes"/>
      <point x="927" y="518" type="line" smooth="yes"/>
      <point x="927" y="538"/>
      <point x="944" y="555"/>
      <point x="964" y="555" type="curve" smooth="yes"/>
      <point x="1555" y="555" type="line" smooth="yes"/>
      <point x="1575" y="555"/>
      <point x="1592" y="538"/>
      <point x="1592" y="518" type="curve" smooth="yes"/>
      <point x="1592" y="77" type="line" smooth="yes"/>
      <point x="1592" y="34"/>
      <point x="1626" y="0"/>
      <point x="1669" y="0" type="curve" smooth="yes"/>
      <point x="2255" y="0" type="line" smooth="yes"/>
      <point x="2298" y="0"/>
      <point x="2332" y="34"/>
      <point x="2332" y="77" type="curve" smooth="yes"/>
      <point x="2332" y="1361" type="line" smooth="yes"/>
      <point x="2332" y="1404"/>
      <point x="2298" y="1438"/>
      <point x="2255" y="1438" type="curve" smooth="yes"/>
      <point x="1671" y="1438" type="line" smooth="yes"/>
      <point x="1628" y="1438"/>
      <point x="1594" y="1404"/>
      <point x="1594" y="1361" type="curve" smooth="yes"/>
      <point x="1594" y="957" type="line" smooth="yes"/>
      <point x="1594" y="937"/>
      <point x="1577" y="920"/>
      <point x="1557" y="920" type="curve" smooth="yes"/>
      <point x="958" y="920" type="line" smooth="yes"/>
      <point x="938" y="920"/>
      <point x="921" y="937"/>
      <point x="921" y="957" type="curve" smooth="yes"/>
      <point x="921" y="1361" type="line" smooth="yes"/>
      <point x="921" y="1404"/>
      <point x="887" y="1438"/>
      <point x="844" y="1438" type="curve" smooth="yes"/>
      <point x="277" y="1438" type="line" smooth="yes"/>
      <point x="234" y="1438"/>
      <point x="200" y="1404"/>
      <point x="200" y="1361" type="curve" smooth="yes"/>
      <point x="200" y="77" type="line" smooth="yes"/>
      <point x="200" y="34"/>
      <point x="234" y="0"/>
    </contour>
  </outline>
</glyph>
<glyph name="I" format="1">
  <advance width="1162"/>
  <unicode hex="0049"/>
  <outline>
    <contour>
      <point x="277" y="0" type="curve" smooth="yes"/>
      <point x="885" y="0" type="line" smooth="yes"/>
      <point x="928" y="0"/>
      <point x="962" y="34"/>
      <point x="962" y="77" type="curve" smooth="yes"/>
      <point x="962" y="1361" type="line" smooth="yes"/>
      <point x="962" y="1404"/>
      <point x="928" y="1438"/>
      <point x="885" y="1438" type="curve" smooth="yes"/>
      <point x="277" y="1438" type="line" smooth="yes"/>
      <point x="234" y="1438"/>
      <point x="200" y="1404"/>
      <point x="200" y="1361" type="curve" smooth="yes"/>
      <point x="200" y="77" type="line" smooth="yes"/>
      <point x="200" y="34"/>
      <point x="234" y="0"/>
    </contour>
  </outline>
</glyph>
<glyph name="J" format="1">
  <advance width="1570"/>
  <unicode hex="004A"/>
  <outline>
    <contour>
      <point x="194" y="-164" type="curve" smooth="yes"/>
      <point x="711" y="-158"/>
      <point x="1378" y="-36"/>
      <point x="1378" y="598" type="curve" smooth="yes"/>
      <point x="1378" y="1401" type="line" smooth="yes"/>
      <point x="1378" y="1421"/>
      <point x="1361" y="1438"/>
      <point x="1341" y="1438" type="curve" smooth="yes"/>
      <point x="557" y="1438" type="line" smooth="yes"/>
      <point x="537" y="1438"/>
      <point x="520" y="1421"/>
      <point x="520" y="1401" type="curve" smooth="yes"/>
      <point x="520" y="598" type="line" smooth="yes"/>
      <point x="520" y="331"/>
      <point x="395" y="243"/>
      <point x="194" y="234" type="curve" smooth="yes"/>
      <point x="173" y="233"/>
      <point x="157" y="216"/>
      <point x="157" y="195" type="curve" smooth="yes"/>
      <point x="157" y="-127" type="line" smooth="yes"/>
      <point x="157" y="-147"/>
      <point x="174" y="-164"/>
    </contour>
  </outline>
</glyph>
<glyph name="K" format="1">
  <advance width="2392"/>
  <unicode hex="004B"/>
  <outline>
    <contour>
      <point x="885" y="0" type="line" smooth="yes"/>
      <point x="928" y="0"/>
      <point x="962" y="34"/>
      <point x="962" y="77" type="curve" smooth="yes"/>
      <point x="962" y="655" type="line"/>
      <point x="1372" y="63" type="line" smooth="yes"/>
      <point x="1399" y="25"/>
      <point x="1446" y="0"/>
      <point x="1493" y="0" type="curve" smooth="yes"/>
      <point x="2185" y="0" type="line" smooth="yes"/>
      <point x="2217" y="0"/>
      <point x="2235" y="36"/>
      <point x="2216" y="62" type="curve" smooth="yes"/>
      <point x="1675" y="792" type="line" smooth="yes"/>
      <point x="1666" y="804"/>
      <point x="1655" y="815"/>
      <point x="1642" y="823" type="curve"/>
      <point x="1659" y="833"/>
      <point x="1674" y="845"/>
      <point x="1687" y="860" type="curve" smooth="yes"/>
      <point x="2126" y="1379" type="line" smooth="yes"/>
      <point x="2146" y="1403"/>
      <point x="2130" y="1438"/>
      <point x="2099" y="1438" type="curve" smooth="yes"/>
      <point x="1524" y="1438" type="line" smooth="yes"/>
      <point x="1477" y="1438"/>
      <point x="1426" y="1412"/>
      <point x="1399" y="1378" type="curve" smooth="yes"/>
      <point x="962" y="830" type="line"/>
      <point x="962" y="1361" type="line" smooth="yes"/>
      <point x="962" y="1404"/>
      <point x="928" y="1438"/>
      <point x="885" y="1438" type="curve" smooth="yes"/>
      <point x="277" y="1438" type="line" smooth="yes"/>
      <point x="234" y="1438"/>
      <point x="200" y="1404"/>
      <point x="200" y="1361" type="curve" smooth="yes"/>
      <point x="200" y="77" type="line" smooth="yes"/>
      <point x="200" y="34"/>
      <point x="234" y="0"/>
      <point x="277" y="0" type="curve" smooth="yes"/>
    </contour>
  </outline>
</glyph>
<glyph name="L" format="1">
  <advance width="2193"/>
  <unicode hex="004C"/>
  <outline>
    <contour>
      <point x="277" y="0" type="curve" smooth="yes"/>
      <point x="1948" y="0" type="line" smooth="yes"/>
      <point x="1991" y="0"/>
      <point x="2025" y="34"/>
      <point x="2025" y="77" type="curve" smooth="yes"/>
      <point x="2025" y="306" type="line" smooth="yes"/>
      <point x="2025" y="349"/>
      <point x="1991" y="383"/>
      <point x="1948" y="383" type="curve" smooth="yes"/>
      <point x="1027" y="383" type="line" smooth="yes"/>
      <point x="1007" y="383"/>
      <point x="990" y="400"/>
      <point x="990" y="420" type="curve" smooth="yes"/>
      <point x="990" y="1361" type="line" smooth="yes"/>
      <point x="990" y="1404"/>
      <point x="956" y="1438"/>
      <point x="913" y="1438" type="curve" smooth="yes"/>
      <point x="277" y="1438" type="line" smooth="yes"/>
      <point x="234" y="1438"/>
      <point x="200" y="1404"/>
      <point x="200" y="1361" type="curve" smooth="yes"/>
      <point x="200" y="77" type="line" smooth="yes"/>
      <point x="200" y="34"/>
      <point x="234" y="0"/>
    </contour>
  </outline>
</glyph>
<glyph name="M" format="1">
  <advance width="3120"/>
  <unicode hex="004D"/>
  <outline>
    <contour>
      <point x="266" y="0" type="curve" smooth="yes"/>
      <point x="775" y="0" type="line" smooth="yes"/>
      <point x="818" y="0"/>
      <point x="852" y="34"/>
      <point x="852" y="77" type="curve"/>
      <point x="892" y="758" type="line"/>
      <point x="892" y="768"/>
      <point x="905" y="772"/>
      <point x="910" y="763" type="curve" smooth="yes"/>
      <point x="1318" y="67" type="line" smooth="yes"/>
      <point x="1341" y="26"/>
      <point x="1386" y="0"/>
      <point x="1433" y="0" type="curve" smooth="yes"/>
      <point x="1685" y="0" type="line" smooth="yes"/>
      <point x="1732" y="0"/>
      <point x="1777" y="26"/>
      <point x="1800" y="67" type="curve" smooth="yes"/>
      <point x="2208" y="763" type="line" smooth="yes"/>
      <point x="2213" y="772"/>
      <point x="2226" y="768"/>
      <point x="2226" y="758" type="curve"/>
      <point x="2266" y="77" type="line"/>
      <point x="2266" y="34"/>
      <point x="2300" y="0"/>
      <point x="2343" y="0" type="curve" smooth="yes"/>
      <point x="2852" y="0" type="line" smooth="yes"/>
      <point x="2895" y="0"/>
      <point x="2929" y="34"/>
      <point x="2929" y="77" type="curve"/>
      <point x="2849" y="1361" type="line"/>
      <point x="2849" y="1404"/>
      <point x="2815" y="1438"/>
      <point x="2772" y="1438" type="curve" smooth="yes"/>
      <point x="2052" y="1438" type="line" smooth="yes"/>
      <point x="2005" y="1438"/>
      <point x="1960" y="1411"/>
      <point x="1938" y="1371" type="curve" smooth="yes"/>
      <point x="1577" y="722" type="line" smooth="yes"/>
      <point x="1569" y="708"/>
      <point x="1549" y="708"/>
      <point x="1541" y="722" type="curve" smooth="yes"/>
      <point x="1180" y="1371" type="line" smooth="yes"/>
      <point x="1158" y="1411"/>
      <point x="1113" y="1438"/>
      <point x="1066" y="1438" type="curve" smooth="yes"/>
      <point x="346" y="1438" type="line" smooth="yes"/>
      <point x="303" y="1438"/>
      <point x="269" y="1404"/>
      <point x="269" y="1361" type="curve"/>
      <point x="189" y="77" type="line"/>
      <point x="189" y="34"/>
      <point x="223" y="0"/>
    </contour>
  </outline>
</glyph>
<glyph name="N" format="1">
  <advance width="2711"/>
  <unicode hex="004E"/>
  <outline>
    <contour>
      <point x="277" y="0" type="curve" smooth="yes"/>
      <point x="786" y="0" type="line" smooth="yes"/>
      <point x="829" y="0"/>
      <point x="863" y="34"/>
      <point x="863" y="77" type="curve" smooth="yes"/>
      <point x="863" y="798" type="line" smooth="yes"/>
      <point x="863" y="813"/>
      <point x="880" y="821"/>
      <point x="891" y="811" type="curve" smooth="yes"/>
      <point x="1700" y="32" type="line" smooth="yes"/>
      <point x="1735" y="1"/>
      <point x="1788" y="-18"/>
      <point x="1835" y="-18" type="curve" smooth="yes"/>
      <point x="2433" y="-18" type="line" smooth="yes"/>
      <point x="2476" y="-18"/>
      <point x="2510" y="16"/>
      <point x="2510" y="59" type="curve" smooth="yes"/>
      <point x="2510" y="1359" type="line" smooth="yes"/>
      <point x="2510" y="1402"/>
      <point x="2476" y="1436"/>
      <point x="2433" y="1436" type="curve" smooth="yes"/>
      <point x="1936" y="1436" type="line" smooth="yes"/>
      <point x="1893" y="1436"/>
      <point x="1859" y="1402"/>
      <point x="1859" y="1359" type="curve" smooth="yes"/>
      <point x="1859" y="841" type="line" smooth="yes"/>
      <point x="1859" y="826"/>
      <point x="1842" y="819"/>
      <point x="1831" y="828" type="curve"/>
      <point x="1215" y="1403" type="line" smooth="yes"/>
      <point x="1180" y="1434"/>
      <point x="1127" y="1454"/>
      <point x="1080" y="1454" type="curve" smooth="yes"/>
      <point x="277" y="1454" type="line" smooth="yes"/>
      <point x="234" y="1454"/>
      <point x="200" y="1420"/>
      <point x="200" y="1377" type="curve" smooth="yes"/>
      <point x="200" y="77" type="line" smooth="yes"/>
      <point x="200" y="34"/>
      <point x="234" y="0"/>
    </contour>
  </outline>
</glyph>
<glyph name="O" format="1">
  <advance width="2816"/>
  <unicode hex="004F"/>
  <outline>
    <contour>
      <point x="1408" y="356" type="curve" smooth="yes"/>
      <point x="1172" y="356"/>
      <point x="1025" y="438"/>
      <point x="1025" y="721" type="curve" smooth="yes"/>
      <point x="1025" y="1004"/>
      <point x="1172" y="1085"/>
      <point x="1408" y="1085" type="curve" smooth="yes"/>
      <point x="1643" y="1085"/>
      <point x="1791" y="1004"/>
      <point x="1791" y="721" type="curve" smooth="yes"/>
      <point x="1791" y="438"/>
      <point x="1643" y="356"/>
    </contour>
    <contour>
      <point x="1408" y="-41" type="curve" smooth="yes"/>
      <point x="1938" y="-41"/>
      <point x="2649" y="72"/>
      <point x="2649" y="721" type="curve" smooth="yes"/>
      <point x="2649" y="1323"/>
      <point x="1938" y="1475"/>
      <point x="1408" y="1475" type="curve" smooth="yes"/>
      <point x="877" y="1475"/>
      <point x="167" y="1323"/>
      <point x="167" y="721" type="curve" smooth="yes"/>
      <point x="167" y="72"/>
      <point x="877" y="-41"/>
    </contour>
  </outline>
</glyph>
<glyph name="P" format="1">
  <advance width="2510"/>
  <unicode hex="0050"/>
  <outline>
    <contour>
      <point x="276" y="0" type="curve" smooth="yes"/>
      <point x="867" y="0" type="line" smooth="yes"/>
      <point x="910" y="0"/>
      <point x="944" y="34"/>
      <point x="944" y="77" type="curve" smooth="yes"/>
      <point x="944" y="416" type="line" smooth="yes"/>
      <point x="944" y="436"/>
      <point x="961" y="453"/>
      <point x="981" y="453" type="curve" smooth="yes"/>
      <point x="1146" y="455"/>
      <point x="1308" y="453"/>
      <point x="1460" y="455" type="curve" smooth="yes"/>
      <point x="1957" y="461"/>
      <point x="2343" y="517"/>
      <point x="2343" y="930" type="curve" smooth="yes"/>
      <point x="2343" y="1370"/>
      <point x="1999" y="1438"/>
      <point x="1452" y="1438" type="curve" smooth="yes"/>
      <point x="1060" y="1438"/>
      <point x="667" y="1436"/>
      <point x="276" y="1436" type="curve" smooth="yes"/>
      <point x="233" y="1436"/>
      <point x="199" y="1401"/>
      <point x="199" y="1359" type="curve" smooth="yes"/>
      <point x="199" y="77" type="line" smooth="yes"/>
      <point x="199" y="34"/>
      <point x="233" y="0"/>
    </contour>
    <contour>
      <point x="981" y="762" type="line" smooth="yes"/>
      <point x="961" y="762"/>
      <point x="944" y="779"/>
      <point x="944" y="799" type="curve" smooth="yes"/>
      <point x="944" y="1020" type="line" smooth="yes"/>
      <point x="944" y="1040"/>
      <point x="961" y="1057"/>
      <point x="981" y="1057" type="curve" smooth="yes"/>
      <point x="1264" y="1057" type="line" smooth="yes"/>
      <point x="1376" y="1057"/>
      <point x="1577" y="1090"/>
      <point x="1577" y="911" type="curve" smooth="yes"/>
      <point x="1577" y="788"/>
      <point x="1479" y="762"/>
      <point x="1391" y="762" type="curve" smooth="yes"/>
    </contour>
  </outline>
</glyph>
<glyph name="Q" format="1">
  <advance width="2816"/>
  <unicode hex="0051"/>
  <outline>
    <contour>
      <point x="1679" y="-513" type="curve"/>
      <point x="1987" y="-392" type="line"/>
      <point x="2024" y="-372"/>
      <point x="2038" y="-326"/>
      <point x="2015" y="-288" type="curve" smooth="yes"/>
      <point x="1676" y="327" type="line" smooth="yes"/>
      <point x="1654" y="364"/>
      <point x="1609" y="377"/>
      <point x="1570" y="357" type="curve"/>
      <point x="1262" y="236" type="line"/>
      <point x="1225" y="216"/>
      <point x="1211" y="170"/>
      <point x="1234" y="132" type="curve" smooth="yes"/>
      <point x="1573" y="-483" type="line" smooth="yes"/>
      <point x="1595" y="-520"/>
      <point x="1640" y="-533"/>
    </contour>
    <contour>
      <point x="1408" y="358" type="curve" smooth="yes"/>
      <point x="1172" y="358"/>
      <point x="1025" y="440"/>
      <point x="1025" y="723" type="curve" smooth="yes"/>
      <point x="1025" y="1006"/>
      <point x="1172" y="1087"/>
      <point x="1408" y="1087" type="curve" smooth="yes"/>
      <point x="1643" y="1087"/>
      <point x="1791" y="1006"/>
      <point x="1791" y="723" type="curve" smooth="yes"/>
      <point x="1791" y="440"/>
      <point x="1643" y="358"/>
    </contour>
    <contour>
      <point x="1408" y="-39" type="curve" smooth="yes"/>
      <point x="1938" y="-39"/>
      <point x="2649" y="74"/>
      <point x="2649" y="723" type="curve" smooth="yes"/>
      <point x="2649" y="1325"/>
      <point x="1938" y="1477"/>
      <point x="1408" y="1477" type="curve" smooth="yes"/>
      <point x="877" y="1477"/>
      <point x="167" y="1325"/>
      <point x="167" y="723" type="curve" smooth="yes"/>
      <point x="167" y="74"/>
      <point x="877" y="-39"/>
    </contour>
  </outline>
</glyph>
<glyph name="R" format="1">
  <advance width="2533"/>
  <unicode hex="0052"/>
  <outline>
    <contour>
      <point x="276" y="0" type="curve" smooth="yes"/>
      <point x="867" y="0" type="line" smooth="yes"/>
      <point x="910" y="0"/>
      <point x="944" y="34"/>
      <point x="944" y="77" type="curve" smooth="yes"/>
      <point x="944" y="457" type="line" smooth="yes"/>
      <point x="944" y="477"/>
      <point x="961" y="496"/>
      <point x="981" y="496" type="curve" smooth="yes"/>
      <point x="1309" y="496" type="line" smooth="yes"/>
      <point x="1422" y="496"/>
      <point x="1455" y="496"/>
      <point x="1497" y="424" type="curve" smooth="yes"/>
      <point x="1546" y="340"/>
      <point x="1560" y="162"/>
      <point x="1578" y="68" type="curve" smooth="yes"/>
      <point x="1588" y="15"/>
      <point x="1613" y="0"/>
      <point x="1676" y="0" type="curve" smooth="yes"/>
      <point x="2293" y="0" type="line" smooth="yes"/>
      <point x="2322" y="0"/>
      <point x="2334" y="21"/>
      <point x="2334" y="47" type="curve" smooth="yes"/>
      <point x="2334" y="69"/>
      <point x="2322" y="124"/>
      <point x="2314" y="184" type="curve" smooth="yes"/>
      <point x="2281" y="439"/>
      <point x="2193" y="611"/>
      <point x="1938" y="654" type="curve"/>
      <point x="1935" y="654"/>
      <point x="1934" y="656"/>
      <point x="1934" y="658" type="curve" smooth="yes"/>
      <point x="1934" y="660"/>
      <point x="1935" y="662"/>
      <point x="1938" y="663" type="curve"/>
      <point x="2157" y="690"/>
      <point x="2343" y="798"/>
      <point x="2343" y="1012" type="curve" smooth="yes"/>
      <point x="2343" y="1434"/>
      <point x="1944" y="1438"/>
      <point x="1438" y="1438" type="curve" smooth="yes"/>
      <point x="1098" y="1438"/>
      <point x="276" y="1436"/>
      <point x="276" y="1436" type="curve"/>
      <point x="233" y="1436"/>
      <point x="199" y="1402"/>
      <point x="199" y="1359" type="curve" smooth="yes"/>
      <point x="199" y="77" type="line" smooth="yes"/>
      <point x="199" y="34"/>
      <point x="233" y="0"/>
    </contour>
    <contour>
      <point x="981" y="803" type="line" smooth="yes"/>
      <point x="961" y="803"/>
      <point x="944" y="820"/>
      <point x="944" y="840" type="curve" smooth="yes"/>
      <point x="944" y="1020" type="line" smooth="yes"/>
      <point x="944" y="1040"/>
      <point x="961" y="1057"/>
      <point x="981" y="1057" type="curve" smooth="yes"/>
      <point x="1333" y="1057" type="line" smooth="yes"/>
      <point x="1425" y="1057"/>
      <point x="1577" y="1053"/>
      <point x="1577" y="926" type="curve" smooth="yes"/>
      <point x="1577" y="856"/>
      <point x="1499" y="803"/>
      <point x="1432" y="803" type="curve" smooth="yes"/>
    </contour>
  </outline>
</glyph>
<glyph name="S" format="1">
  <advance width="2584"/>
  <unicode hex="0053"/>
  <outline>
    <contour>
      <point x="1258" y="-41" type="curve" smooth="yes"/>
      <point x="2118" y="-41"/>
      <point x="2411" y="108"/>
      <point x="2411" y="459" type="curve" smooth="yes"/>
      <point x="2411" y="868"/>
      <point x="1880" y="906"/>
      <point x="1466" y="933" type="curve" smooth="yes"/>
      <point x="1097" y="957"/>
      <point x="983" y="963"/>
      <point x="983" y="1030" type="curve" smooth="yes"/>
      <point x="983" y="1096"/>
      <point x="1137" y="1092"/>
      <point x="1262" y="1092" type="curve" smooth="yes"/>
      <point x="1390" y="1092"/>
      <point x="1743" y="1085"/>
      <point x="2041" y="986" type="curve" smooth="yes"/>
      <point x="2084" y="972"/>
      <point x="2128" y="990"/>
      <point x="2149" y="1030" type="curve" smooth="yes"/>
      <point x="2250" y="1233" type="line" smooth="yes"/>
      <point x="2268" y="1268"/>
      <point x="2250" y="1315"/>
      <point x="2213" y="1329" type="curve" smooth="yes"/>
      <point x="1947" y="1431"/>
      <point x="1614" y="1475"/>
      <point x="1211" y="1475" type="curve" smooth="yes"/>
      <point x="709" y="1475"/>
      <point x="191" y="1430"/>
      <point x="191" y="979" type="curve" smooth="yes"/>
      <point x="191" y="517"/>
      <point x="870" y="526"/>
      <point x="1447" y="489" type="curve" smooth="yes"/>
      <point x="1502" y="485"/>
      <point x="1583" y="471"/>
      <point x="1583" y="410" type="curve" smooth="yes"/>
      <point x="1583" y="358"/>
      <point x="1491" y="348"/>
      <point x="1401" y="348" type="curve" smooth="yes"/>
      <point x="1033" y="348"/>
      <point x="734" y="377"/>
      <point x="411" y="475" type="curve" smooth="yes"/>
      <point x="368" y="488"/>
      <point x="324" y="468"/>
      <point x="305" y="428" type="curve" smooth="yes"/>
      <point x="198" y="201" type="line" smooth="yes"/>
      <point x="181" y="165"/>
      <point x="200" y="119"/>
      <point x="238" y="106" type="curve" smooth="yes"/>
      <point x="566" y="-11"/>
      <point x="918" y="-41"/>
    </contour>
  </outline>
</glyph>
<glyph name="T" format="1">
  <advance width="2266"/>
  <unicode hex="0054"/>
  <outline>
    <contour>
      <point x="843" y="0" type="curve" smooth="yes"/>
      <point x="1416" y="0" type="line" smooth="yes"/>
      <point x="1459" y="0"/>
      <point x="1493" y="34"/>
      <point x="1493" y="77" type="curve" smooth="yes"/>
      <point x="1493" y="1036" type="line" smooth="yes"/>
      <point x="1493" y="1056"/>
      <point x="1510" y="1073"/>
      <point x="1530" y="1073" type="curve" smooth="yes"/>
      <point x="2040" y="1073" type="line" smooth="yes"/>
      <point x="2083" y="1073"/>
      <point x="2117" y="1107"/>
      <point x="2117" y="1150" type="curve" smooth="yes"/>
      <point x="2117" y="1361" type="line" smooth="yes"/>
      <point x="2117" y="1404"/>
      <point x="2083" y="1438"/>
      <point x="2040" y="1438" type="curve" smooth="yes"/>
      <point x="216" y="1438" type="line" smooth="yes"/>
      <point x="173" y="1438"/>
      <point x="139" y="1404"/>
      <point x="139" y="1361" type="curve" smooth="yes"/>
      <point x="139" y="1150" type="line" smooth="yes"/>
      <point x="139" y="1107"/>
      <point x="173" y="1073"/>
      <point x="216" y="1073" type="curve" smooth="yes"/>
      <point x="729" y="1073" type="line" smooth="yes"/>
      <point x="749" y="1073"/>
      <point x="766" y="1056"/>
      <point x="766" y="1036" type="curve" smooth="yes"/>
      <point x="766" y="77" type="line" smooth="yes"/>
      <point x="766" y="34"/>
      <point x="800" y="0"/>
    </contour>
  </outline>
</glyph>
<glyph name="U" format="1">
  <advance width="2773"/>
  <unicode hex="0055"/>
  <outline>
    <contour>
      <point x="1406" y="-41" type="curve" smooth="yes"/>
      <point x="1912" y="-41"/>
      <point x="2585" y="72"/>
      <point x="2585" y="721" type="curve" smooth="yes"/>
      <point x="2585" y="1361" type="line" smooth="yes"/>
      <point x="2585" y="1404"/>
      <point x="2551" y="1438"/>
      <point x="2508" y="1438" type="curve" smooth="yes"/>
      <point x="1845" y="1438" type="line" smooth="yes"/>
      <point x="1802" y="1438"/>
      <point x="1768" y="1404"/>
      <point x="1768" y="1361" type="curve" smooth="yes"/>
      <point x="1768" y="721" type="line" smooth="yes"/>
      <point x="1768" y="438"/>
      <point x="1629" y="356"/>
      <point x="1406" y="356" type="curve" smooth="yes"/>
      <point x="1183" y="356"/>
      <point x="1043" y="438"/>
      <point x="1043" y="721" type="curve" smooth="yes"/>
      <point x="1043" y="1361" type="line" smooth="yes"/>
      <point x="1043" y="1404"/>
      <point x="1009" y="1438"/>
      <point x="966" y="1438" type="curve" smooth="yes"/>
      <point x="262" y="1438" type="line" smooth="yes"/>
      <point x="219" y="1438"/>
      <point x="185" y="1404"/>
      <point x="185" y="1361" type="curve" smooth="yes"/>
      <point x="185" y="721" type="line" smooth="yes"/>
      <point x="185" y="72"/>
      <point x="884" y="-41"/>
    </contour>
  </outline>
</glyph>
<glyph name="V" format="1">
  <advance width="2521"/>
  <unicode hex="0056"/>
  <outline>
    <contour>
      <point x="960" y="0" type="curve" smooth="yes"/>
      <point x="1566" y="0" type="line" smooth="yes"/>
      <point x="1613" y="0"/>
      <point x="1658" y="27"/>
      <point x="1679" y="67" type="curve" smooth="yes"/>
      <point x="2385" y="1371" type="line" smooth="yes"/>
      <point x="2401" y="1401"/>
      <point x="2379" y="1438"/>
      <point x="2344" y="1438" type="curve" smooth="yes"/>
      <point x="1819" y="1438" type="line" smooth="yes"/>
      <point x="1772" y="1438"/>
      <point x="1727" y="1411"/>
      <point x="1705" y="1371" type="curve" smooth="yes"/>
      <point x="1295" y="613" type="line"/>
      <point x="887" y="1371" type="line" smooth="yes"/>
      <point x="865" y="1411"/>
      <point x="821" y="1438"/>
      <point x="774" y="1438" type="curve" smooth="yes"/>
      <point x="166" y="1438" type="line" smooth="yes"/>
      <point x="131" y="1438"/>
      <point x="109" y="1401"/>
      <point x="126" y="1371" type="curve" smooth="yes"/>
      <point x="846" y="67" type="line" smooth="yes"/>
      <point x="868" y="27"/>
      <point x="913" y="0"/>
    </contour>
  </outline>
</glyph>
<glyph name="W" format="1">
  <advance width="3410"/>
  <unicode hex="0057"/>
  <outline>
    <contour>
      <point x="796" y="0" type="curve" smooth="yes"/>
      <point x="1344" y="0"/>
      <point x="1346" y="0"/>
      <point x="1348" y="0" type="curve"/>
      <point x="1391" y="3"/>
      <point x="1430" y="31"/>
      <point x="1448" y="70" type="curve" smooth="yes"/>
      <point x="1695" y="630" type="line"/>
      <point x="1916" y="71" type="line" smooth="yes"/>
      <point x="1933" y="29"/>
      <point x="1975" y="0"/>
      <point x="2021" y="0" type="curve" smooth="yes"/>
      <point x="2606" y="0" type="line" smooth="yes"/>
      <point x="2652" y="0"/>
      <point x="2695" y="28"/>
      <point x="2713" y="70" type="curve" smooth="yes"/>
      <point x="3267" y="1368" type="line" smooth="yes"/>
      <point x="3281" y="1401"/>
      <point x="3257" y="1438"/>
      <point x="3220" y="1438" type="curve" smooth="yes"/>
      <point x="2715" y="1438" type="line" smooth="yes"/>
      <point x="2669" y="1438"/>
      <point x="2626" y="1410"/>
      <point x="2608" y="1368" type="curve" smooth="yes"/>
      <point x="2339" y="738" type="line"/>
      <point x="2079" y="1367" type="line" smooth="yes"/>
      <point x="2063" y="1407"/>
      <point x="2024" y="1435"/>
      <point x="1981" y="1438" type="curve"/>
      <point x="1511" y="1438" type="line" smooth="yes"/>
      <point x="1465" y="1438"/>
      <point x="1422" y="1410"/>
      <point x="1403" y="1368" type="curve" smooth="yes"/>
      <point x="1130" y="750" type="line"/>
      <point x="894" y="1366" type="line" smooth="yes"/>
      <point x="877" y="1409"/>
      <point x="835" y="1438"/>
      <point x="789" y="1438" type="curve" smooth="yes"/>
      <point x="182" y="1438" type="line" smooth="yes"/>
      <point x="145" y="1438"/>
      <point x="121" y="1401"/>
      <point x="135" y="1368" type="curve" smooth="yes"/>
      <point x="689" y="70" type="line" smooth="yes"/>
      <point x="707" y="28"/>
      <point x="750" y="0"/>
    </contour>
  </outline>
</glyph>
<glyph name="X" format="1">
  <advance width="2580"/>
  <unicode hex="0058"/>
  <outline>
    <contour>
      <point x="201" y="0" type="curve" smooth="yes"/>
      <point x="686" y="0" type="line" smooth="yes"/>
      <point x="733" y="0"/>
      <point x="785" y="20"/>
      <point x="820" y="51" type="curve" smooth="yes"/>
      <point x="1176" y="367" type="line"/>
      <point x="1483" y="55" type="line" smooth="yes"/>
      <point x="1516" y="21"/>
      <point x="1567" y="0"/>
      <point x="1614" y="0" type="curve" smooth="yes"/>
      <point x="2386" y="0" type="line" smooth="yes"/>
      <point x="2406" y="0"/>
      <point x="2419" y="16"/>
      <point x="2419" y="33" type="curve" smooth="yes"/>
      <point x="2419" y="40"/>
      <point x="2416" y="48"/>
      <point x="2410" y="55" type="curve"/>
      <point x="1683" y="818" type="line"/>
      <point x="2324" y="1387" type="line" smooth="yes"/>
      <point x="2331" y="1393"/>
      <point x="2334" y="1401"/>
      <point x="2334" y="1408" type="curve" smooth="yes"/>
      <point x="2334" y="1423"/>
      <point x="2322" y="1438"/>
      <point x="2304" y="1438" type="curve" smooth="yes"/>
      <point x="1815" y="1438" type="line" smooth="yes"/>
      <point x="1768" y="1438"/>
      <point x="1716" y="1418"/>
      <point x="1681" y="1387" type="curve" smooth="yes"/>
      <point x="1388" y="1126" type="line"/>
      <point x="1144" y="1383" type="line" smooth="yes"/>
      <point x="1112" y="1416"/>
      <point x="1061" y="1438"/>
      <point x="1014" y="1438" type="curve" smooth="yes"/>
      <point x="201" y="1438" type="line" smooth="yes"/>
      <point x="181" y="1438"/>
      <point x="169" y="1422"/>
      <point x="169" y="1406" type="curve" smooth="yes"/>
      <point x="169" y="1398"/>
      <point x="172" y="1390"/>
      <point x="178" y="1383" type="curve"/>
      <point x="877" y="671" type="line"/>
      <point x="181" y="51" type="line" smooth="yes"/>
      <point x="174" y="45"/>
      <point x="171" y="37"/>
      <point x="171" y="30" type="curve" smooth="yes"/>
      <point x="171" y="15"/>
      <point x="183" y="0"/>
    </contour>
  </outline>
</glyph>
<glyph name="Y" format="1">
  <advance width="2395"/>
  <unicode hex="0059"/>
  <outline>
    <contour>
      <point x="897" y="0" type="curve" smooth="yes"/>
      <point x="1505" y="0" type="line" smooth="yes"/>
      <point x="1548" y="0"/>
      <point x="1582" y="34"/>
      <point x="1582" y="77" type="curve" smooth="yes"/>
      <point x="1582" y="433" type="line"/>
      <point x="2272" y="1376" type="line" smooth="yes"/>
      <point x="2277" y="1383"/>
      <point x="2280" y="1391"/>
      <point x="2280" y="1399" type="curve" smooth="yes"/>
      <point x="2280" y="1419"/>
      <point x="2263" y="1438"/>
      <point x="2240" y="1438" type="curve" smooth="yes"/>
      <point x="1714" y="1438" type="line" smooth="yes"/>
      <point x="1667" y="1438"/>
      <point x="1620" y="1413"/>
      <point x="1593" y="1375" type="curve" smooth="yes"/>
      <point x="1254" y="890" type="line"/>
      <point x="904" y="1376" type="line" smooth="yes"/>
      <point x="877" y="1414"/>
      <point x="829" y="1438"/>
      <point x="782" y="1438" type="curve" smooth="yes"/>
      <point x="144" y="1438" type="line" smooth="yes"/>
      <point x="121" y="1438"/>
      <point x="105" y="1419"/>
      <point x="105" y="1400" type="curve" smooth="yes"/>
      <point x="105" y="1392"/>
      <point x="108" y="1384"/>
      <point x="113" y="1377" type="curve" smooth="yes"/>
      <point x="820" y="430" type="line"/>
      <point x="820" y="77" type="line" smooth="yes"/>
      <point x="820" y="34"/>
      <point x="854" y="0"/>
    </contour>
  </outline>
</glyph>
<glyph name="Z" format="1">
  <advance width="2230"/>
  <unicode hex="005A"/>
  <outline>
    <contour>
      <point x="1965" y="0" type="line" smooth="yes"/>
      <point x="2008" y="0"/>
      <point x="2042" y="34"/>
      <point x="2042" y="77" type="curve" smooth="yes"/>
      <point x="2042" y="306" type="line" smooth="yes"/>
      <point x="2042" y="349"/>
      <point x="2008" y="383"/>
      <point x="1965" y="383" type="curve" smooth="yes"/>
      <point x="1192" y="383" type="line" smooth="yes"/>
      <point x="1184" y="383"/>
      <point x="1178" y="390"/>
      <point x="1178" y="397" type="curve" smooth="yes"/>
      <point x="1178" y="401"/>
      <point x="1180" y="404"/>
      <point x="1183" y="407" type="curve" smooth="yes"/>
      <point x="1941" y="1058" type="line" smooth="yes"/>
      <point x="1976" y="1089"/>
      <point x="1999" y="1138"/>
      <point x="1999" y="1185" type="curve" smooth="yes"/>
      <point x="1999" y="1361" type="line" smooth="yes"/>
      <point x="1999" y="1404"/>
      <point x="1965" y="1438"/>
      <point x="1922" y="1438" type="curve" smooth="yes"/>
      <point x="300" y="1438" type="line" smooth="yes"/>
      <point x="257" y="1438"/>
      <point x="223" y="1404"/>
      <point x="223" y="1361" type="curve" smooth="yes"/>
      <point x="223" y="1134" type="line" smooth="yes"/>
      <point x="223" y="1091"/>
      <point x="257" y="1057"/>
      <point x="300" y="1057" type="curve" smooth="yes"/>
      <point x="963" y="1057" type="line" smooth="yes"/>
      <point x="971" y="1057"/>
      <point x="977" y="1050"/>
      <point x="977" y="1043" type="curve" smooth="yes"/>
      <point x="977" y="1039"/>
      <point x="975" y="1036"/>
      <point x="972" y="1033" type="curve" smooth="yes"/>
      <point x="247" y="395" type="line" smooth="yes"/>
      <point x="211" y="364"/>
      <point x="189" y="314"/>
      <point x="189" y="267" type="curve" smooth="yes"/>
      <point x="189" y="77" type="line" smooth="yes"/>
      <point x="189" y="34"/>
      <point x="223" y="0"/>
      <point x="266" y="0" type="curve" smooth="yes"/>
    </contour>
  </outline>
</glyph>
<glyph name="bracketleft" format="1">
  <advance width="1657"/>
  <unicode hex="005B"/>
  <outline>
    <contour>
      <point x="279" y="-205" type="curve" smooth="yes"/>
      <point x="1403" y="-205" type="line" smooth="yes"/>
      <point x="1446" y="-205"/>
      <point x="1480" y="-171"/>
      <point x="1480" y="-128" type="curve" smooth="yes"/>
      <point x="1480" y="101" type="line" smooth="yes"/>
      <point x="1480" y="144"/>
      <point x="1446" y="178"/>
      <point x="1403" y="178" type="curve" smooth="yes"/>
      <point x="1029" y="178" type="line" smooth="yes"/>
      <point x="1009" y="178"/>
      <point x="992" y="195"/>
      <point x="992" y="215" type="curve" smooth="yes"/>
      <point x="992" y="1227" type="line" smooth="yes"/>
      <point x="992" y="1247"/>
      <point x="1009" y="1264"/>
      <point x="1029" y="1264" type="curve" smooth="yes"/>
      <point x="1403" y="1264" type="line" smooth="yes"/>
      <point x="1446" y="1264"/>
      <point x="1480" y="1298"/>
      <point x="1480" y="1341" type="curve" smooth="yes"/>
      <point x="1480" y="1570" type="line" smooth="yes"/>
      <point x="1480" y="1613"/>
      <point x="1446" y="1647"/>
      <point x="1403" y="1647" type="curve" smooth="yes"/>
      <point x="279" y="1647" type="line" smooth="yes"/>
      <point x="236" y="1647"/>
      <point x="202" y="1613"/>
      <point x="202" y="1570" type="curve" smooth="yes"/>
      <point x="202" y="-128" type="line" smooth="yes"/>
      <point x="202" y="-171"/>
      <point x="236" y="-205"/>
    </contour>
  </outline>
</glyph>
<glyph name="backslash" format="1">
  <advance width="1531"/>
  <unicode hex="005C"/>
  <outline>
    <contour>
      <point x="839" y="-207" type="curve" smooth="yes"/>
      <point x="1371" y="-205" type="line" smooth="yes"/>
      <point x="1389" y="-205"/>
      <point x="1401" y="-187"/>
      <point x="1395" y="-170" type="curve" smooth="yes"/>
      <point x="708" y="1612" type="line" smooth="yes"/>
      <point x="701" y="1633"/>
      <point x="680" y="1647"/>
      <point x="658" y="1647" type="curve" smooth="yes"/>
      <point x="126" y="1647" type="line" smooth="yes"/>
      <point x="108" y="1647"/>
      <point x="96" y="1629"/>
      <point x="102" y="1612" type="curve" smooth="yes"/>
      <point x="789" y="-172" type="line" smooth="yes"/>
      <point x="797" y="-193"/>
      <point x="817" y="-207"/>
    </contour>
  </outline>
</glyph>
<glyph name="bracketright" format="1">
  <advance width="1660"/>
  <unicode hex="005D"/>
  <outline>
    <contour>
      <point x="256" y="-205" type="curve" smooth="yes"/>
      <point x="1380" y="-205" type="line" smooth="yes"/>
      <point x="1423" y="-205"/>
      <point x="1457" y="-171"/>
      <point x="1457" y="-128" type="curve" smooth="yes"/>
      <point x="1457" y="1570" type="line" smooth="yes"/>
      <point x="1457" y="1613"/>
      <point x="1423" y="1647"/>
      <point x="1380" y="1647" type="curve" smooth="yes"/>
      <point x="256" y="1647" type="line" smooth="yes"/>
      <point x="213" y="1647"/>
      <point x="179" y="1613"/>
      <point x="179" y="1570" type="curve" smooth="yes"/>
      <point x="179" y="1341" type="line" smooth="yes"/>
      <point x="179" y="1298"/>
      <point x="213" y="1264"/>
      <point x="256" y="1264" type="curve" smooth="yes"/>
      <point x="629" y="1264" type="line" smooth="yes"/>
      <point x="649" y="1264"/>
      <point x="666" y="1247"/>
      <point x="666" y="1227" type="curve" smooth="yes"/>
      <point x="666" y="215" type="line" smooth="yes"/>
      <point x="666" y="195"/>
      <point x="649" y="178"/>
      <point x="629" y="178" type="curve" smooth="yes"/>
      <point x="256" y="178" type="line" smooth="yes"/>
      <point x="213" y="178"/>
      <point x="179" y="144"/>
      <point x="179" y="101" type="curve" smooth="yes"/>
      <point x="179" y="-128" type="line" smooth="yes"/>
      <point x="179" y="-171"/>
      <point x="213" y="-205"/>
    </contour>
  </outline>
</glyph>
<glyph name="grave" format="1">
  <advance width="1745"/>
  <unicode hex="0060"/>
  <outline>
    <contour>
      <point x="1239" y="1171" type="curve" smooth="yes"/>
      <point x="1389" y="1171" type="line" smooth="yes"/>
      <point x="1418" y="1171"/>
      <point x="1431" y="1176"/>
      <point x="1431" y="1203" type="curve" smooth="yes"/>
      <point x="1431" y="1212"/>
      <point x="1430" y="1224"/>
      <point x="1427" y="1238" type="curve" smooth="yes"/>
      <point x="1364" y="1567" type="line" smooth="yes"/>
      <point x="1356" y="1610"/>
      <point x="1337" y="1622"/>
      <point x="1293" y="1622" type="curve" smooth="yes"/>
      <point x="1016" y="1622" type="line" smooth="yes"/>
      <point x="996" y="1622"/>
      <point x="988" y="1610"/>
      <point x="988" y="1594" type="curve" smooth="yes"/>
      <point x="988" y="1583"/>
      <point x="993" y="1569"/>
      <point x="1000" y="1557" type="curve" smooth="yes"/>
      <point x="1183" y="1210" type="line" smooth="yes"/>
      <point x="1193" y="1193"/>
      <point x="1201" y="1171"/>
    </contour>
  </outline>
</glyph>
<glyph name="a" format="1">
  <advance width="2098"/>
  <unicode hex="0061"/>
  <outline>
    <contour>
      <point x="775" y="-41" type="curve" smooth="yes"/>
      <point x="1141" y="-41"/>
      <point x="1381" y="59"/>
      <point x="1496" y="210" type="curve" smooth="yes"/>
      <point x="1503" y="219"/>
      <point x="1509" y="222"/>
      <point x="1513" y="222" type="curve" smooth="yes"/>
      <point x="1520" y="222"/>
      <point x="1525" y="216"/>
      <point x="1528" y="207" type="curve" smooth="yes"/>
      <point x="1536" y="183"/>
      <point x="1586" y="99"/>
      <point x="1611" y="56" type="curve" smooth="yes"/>
      <point x="1632" y="21"/>
      <point x="1675" y="0"/>
      <point x="1715" y="0" type="curve" smooth="yes"/>
      <point x="1850" y="0" type="line" smooth="yes"/>
      <point x="1885" y="0"/>
      <point x="1913" y="28"/>
      <point x="1913" y="63" type="curve" smooth="yes"/>
      <point x="1913" y="631" type="line" smooth="yes"/>
      <point x="1913" y="980"/>
      <point x="1475" y="1053"/>
      <point x="1006" y="1053" type="curve" smooth="yes"/>
      <point x="520" y="1053"/>
      <point x="273" y="989"/>
      <point x="213" y="846" type="curve" smooth="yes"/>
      <point x="208" y="833"/>
      <point x="202" y="816"/>
      <point x="202" y="802" type="curve" smooth="yes"/>
      <point x="202" y="785"/>
      <point x="217" y="766"/>
      <point x="234" y="765" type="curve" smooth="yes"/>
      <point x="660" y="728" type="line" smooth="yes"/>
      <point x="669" y="727"/>
      <point x="676" y="726"/>
      <point x="682" y="726" type="curve" smooth="yes"/>
      <point x="703" y="726"/>
      <point x="715" y="730"/>
      <point x="738" y="750" type="curve" smooth="yes"/>
      <point x="813" y="815"/>
      <point x="927" y="840"/>
      <point x="1011" y="840" type="curve" smooth="yes"/>
      <point x="1199" y="840"/>
      <point x="1272" y="772"/>
      <point x="1272" y="653" type="curve" smooth="yes"/>
      <point x="1272" y="647"/>
      <point x="1272" y="646"/>
      <point x="1272" y="639" type="curve" smooth="yes"/>
      <point x="1272" y="594"/>
      <point x="175" y="646"/>
      <point x="175" y="238" type="curve" smooth="yes"/>
      <point x="175" y="62"/>
      <point x="419" y="-41"/>
    </contour>
    <contour>
      <point x="898" y="187" type="curve" smooth="yes"/>
      <point x="818" y="187"/>
      <point x="771" y="220"/>
      <point x="771" y="274" type="curve" smooth="yes"/>
      <point x="771" y="367"/>
      <point x="974" y="408"/>
      <point x="1243" y="447" type="curve"/>
      <point x="1248" y="448"/>
      <point x="1252" y="448"/>
      <point x="1255" y="448" type="curve" smooth="yes"/>
      <point x="1285" y="448"/>
      <point x="1286" y="427"/>
      <point x="1286" y="413" type="curve" smooth="yes"/>
      <point x="1286" y="298"/>
      <point x="1110" y="187"/>
    </contour>
  </outline>
</glyph>
<glyph name="b" format="1">
  <advance width="2176"/>
  <unicode hex="0062"/>
  <outline>
    <contour>
      <point x="1254" y="-41" type="curve" smooth="yes"/>
      <point x="1631" y="-41"/>
      <point x="2008" y="133"/>
      <point x="2008" y="498" type="curve" smooth="yes"/>
      <point x="2008" y="885"/>
      <point x="1639" y="1053"/>
      <point x="1295" y="1053" type="curve" smooth="yes"/>
      <point x="1117" y="1053"/>
      <point x="943" y="1008"/>
      <point x="831" y="926" type="curve" smooth="yes"/>
      <point x="827" y="923"/>
      <point x="823" y="922"/>
      <point x="820" y="922" type="curve" smooth="yes"/>
      <point x="810" y="922"/>
      <point x="802" y="930"/>
      <point x="802" y="941" type="curve" smooth="yes"/>
      <point x="802" y="1346" type="line" smooth="yes"/>
      <point x="802" y="1389"/>
      <point x="768" y="1423"/>
      <point x="725" y="1423" type="curve" smooth="yes"/>
      <point x="277" y="1423" type="line" smooth="yes"/>
      <point x="234" y="1423"/>
      <point x="200" y="1389"/>
      <point x="200" y="1346" type="curve" smooth="yes"/>
      <point x="200" y="67" type="line" smooth="yes"/>
      <point x="200" y="24"/>
      <point x="217" y="0"/>
      <point x="260" y="0" type="curve" smooth="yes"/>
      <point x="377" y="0" type="line" smooth="yes"/>
      <point x="423" y="0"/>
      <point x="440" y="25"/>
      <point x="466" y="63" type="curve" smooth="yes"/>
      <point x="516" y="137"/>
      <point x="542" y="178"/>
      <point x="556" y="201" type="curve" smooth="yes"/>
      <point x="561" y="209"/>
      <point x="568" y="213"/>
      <point x="575" y="213" type="curve" smooth="yes"/>
      <point x="581" y="213"/>
      <point x="587" y="210"/>
      <point x="592" y="204" type="curve" smooth="yes"/>
      <point x="730" y="42"/>
      <point x="993" y="-41"/>
    </contour>
    <contour>
      <point x="1093" y="250" type="curve" smooth="yes"/>
      <point x="898" y="250"/>
      <point x="802" y="381"/>
      <point x="802" y="514" type="curve" smooth="yes"/>
      <point x="802" y="643"/>
      <point x="898" y="776"/>
      <point x="1095" y="776" type="curve" smooth="yes"/>
      <point x="1281" y="776"/>
      <point x="1375" y="645"/>
      <point x="1375" y="514" type="curve" smooth="yes"/>
      <point x="1375" y="383"/>
      <point x="1281" y="250"/>
    </contour>
  </outline>
</glyph>
<glyph name="d" format="1">
  <advance width="2172"/>
  <unicode hex="0064"/>
  <outline>
    <contour>
      <point x="917" y="-41" type="curve" smooth="yes"/>
      <point x="1177" y="-41"/>
      <point x="1437" y="41"/>
      <point x="1576" y="200" type="curve" smooth="yes"/>
      <point x="1582" y="207"/>
      <point x="1589" y="210"/>
      <point x="1597" y="210" type="curve" smooth="yes"/>
      <point x="1606" y="210"/>
      <point x="1614" y="206"/>
      <point x="1620" y="197" type="curve" smooth="yes"/>
      <point x="1707" y="64" type="line" smooth="yes"/>
      <point x="1732" y="25"/>
      <point x="1779" y="0"/>
      <point x="1826" y="0" type="curve" smooth="yes"/>
      <point x="1895" y="0" type="line" smooth="yes"/>
      <point x="1938" y="0"/>
      <point x="1972" y="34"/>
      <point x="1972" y="77" type="curve" smooth="yes"/>
      <point x="1972" y="1346" type="line" smooth="yes"/>
      <point x="1972" y="1389"/>
      <point x="1938" y="1423"/>
      <point x="1895" y="1423" type="curve" smooth="yes"/>
      <point x="1447" y="1423" type="line" smooth="yes"/>
      <point x="1404" y="1423"/>
      <point x="1370" y="1389"/>
      <point x="1370" y="1346" type="curve" smooth="yes"/>
      <point x="1370" y="941" type="line" smooth="yes"/>
      <point x="1370" y="930"/>
      <point x="1362" y="922"/>
      <point x="1352" y="922" type="curve" smooth="yes"/>
      <point x="1349" y="922"/>
      <point x="1345" y="923"/>
      <point x="1341" y="926" type="curve" smooth="yes"/>
      <point x="1228" y="1008"/>
      <point x="1055" y="1053"/>
      <point x="876" y="1053" type="curve" smooth="yes"/>
      <point x="532" y="1053"/>
      <point x="163" y="885"/>
      <point x="163" y="498" type="curve" smooth="yes"/>
      <point x="163" y="133"/>
      <point x="540" y="-41"/>
    </contour>
    <contour>
      <point x="1079" y="250" type="curve" smooth="yes"/>
      <point x="890" y="250"/>
      <point x="796" y="383"/>
      <point x="796" y="514" type="curve" smooth="yes"/>
      <point x="796" y="645"/>
      <point x="890" y="776"/>
      <point x="1077" y="776" type="curve" smooth="yes"/>
      <point x="1273" y="776"/>
      <point x="1370" y="643"/>
      <point x="1370" y="514" type="curve" smooth="yes"/>
      <point x="1370" y="381"/>
      <point x="1273" y="250"/>
    </contour>
  </outline>
</glyph>
<glyph name="e" format="1">
  <advance width="2026"/>
  <unicode hex="0065"/>
  <outline>
    <contour>
      <point x="1051" y="-41" type="curve" smooth="yes"/>
      <point x="1602" y="-41"/>
      <point x="1829" y="83"/>
      <point x="1829" y="223" type="curve" smooth="yes"/>
      <point x="1829" y="254"/>
      <point x="1817" y="294"/>
      <point x="1770" y="294" type="curve" smooth="yes"/>
      <point x="1739" y="294"/>
      <point x="1406" y="294"/>
      <point x="1372" y="294" type="curve" smooth="yes"/>
      <point x="1316" y="294"/>
      <point x="1325" y="188"/>
      <point x="1088" y="188" type="curve" smooth="yes"/>
      <point x="965" y="188"/>
      <point x="797" y="259"/>
      <point x="797" y="421" type="curve" smooth="yes"/>
      <point x="797" y="437"/>
      <point x="806" y="455"/>
      <point x="822" y="455" type="curve" smooth="yes"/>
      <point x="1812" y="455" type="line" smooth="yes"/>
      <point x="1831" y="455"/>
      <point x="1847" y="466"/>
      <point x="1849" y="484" type="curve" smooth="yes"/>
      <point x="1850" y="496"/>
      <point x="1851" y="506"/>
      <point x="1851" y="520" type="curve" smooth="yes"/>
      <point x="1851" y="936"/>
      <point x="1397" y="1053"/>
      <point x="1042" y="1053" type="curve" smooth="yes"/>
      <point x="647" y="1053"/>
      <point x="164" y="961"/>
      <point x="164" y="504" type="curve" smooth="yes"/>
      <point x="164" y="37"/>
      <point x="653" y="-41"/>
    </contour>
    <contour>
      <point x="810" y="615" type="line" smooth="yes"/>
      <point x="797" y="615"/>
      <point x="798" y="634"/>
      <point x="798" y="648" type="curve"/>
      <point x="804" y="739"/>
      <point x="913" y="823"/>
      <point x="1053" y="823" type="curve" smooth="yes"/>
      <point x="1193" y="823"/>
      <point x="1293" y="745"/>
      <point x="1302" y="643" type="curve"/>
      <point x="1302" y="630"/>
      <point x="1303" y="615"/>
      <point x="1289" y="615" type="curve" smooth="yes"/>
    </contour>
  </outline>
</glyph>
<glyph name="f" format="1">
  <advance width="1711"/>
  <unicode hex="0066"/>
  <outline>
    <contour>
      <point x="475" y="0" type="curve" smooth="yes"/>
      <point x="956" y="0" type="line" smooth="yes"/>
      <point x="999" y="0"/>
      <point x="1033" y="34"/>
      <point x="1033" y="77" type="curve" smooth="yes"/>
      <point x="1033" y="751" type="line" smooth="yes"/>
      <point x="1033" y="771"/>
      <point x="1036" y="788"/>
      <point x="1056" y="788" type="curve" smooth="yes"/>
      <point x="1450" y="788" type="line" smooth="yes"/>
      <point x="1493" y="788"/>
      <point x="1517" y="797"/>
      <point x="1517" y="840" type="curve" smooth="yes"/>
      <point x="1517" y="951" type="line" smooth="yes"/>
      <point x="1517" y="994"/>
      <point x="1493" y="1006"/>
      <point x="1450" y="1006" type="curve" smooth="yes"/>
      <point x="1039" y="1006" type="line" smooth="yes"/>
      <point x="1036" y="1006"/>
      <point x="1033" y="1009"/>
      <point x="1033" y="1012" type="curve" smooth="yes"/>
      <point x="1033" y="1015"/>
      <point x="1033" y="1060"/>
      <point x="1033" y="1062" type="curve" smooth="yes"/>
      <point x="1033" y="1151"/>
      <point x="1138" y="1177"/>
      <point x="1293" y="1177" type="curve" smooth="yes"/>
      <point x="1359" y="1177"/>
      <point x="1495" y="1161"/>
      <point x="1500" y="1161" type="curve" smooth="yes"/>
      <point x="1534" y="1161"/>
      <point x="1541" y="1175"/>
      <point x="1541" y="1212" type="curve" smooth="yes"/>
      <point x="1541" y="1375" type="line" smooth="yes"/>
      <point x="1541" y="1403"/>
      <point x="1519" y="1431"/>
      <point x="1491" y="1438" type="curve"/>
      <point x="1370" y="1458"/>
      <point x="1231" y="1475"/>
      <point x="1097" y="1475" type="curve" smooth="yes"/>
      <point x="753" y="1475"/>
      <point x="423" y="1364"/>
      <point x="399" y="1044" type="curve" smooth="yes"/>
      <point x="398" y="1022"/>
      <point x="398" y="1006"/>
      <point x="376" y="1006" type="curve" smooth="yes"/>
      <point x="226" y="1006" type="line" smooth="yes"/>
      <point x="183" y="1006"/>
      <point x="159" y="988"/>
      <point x="159" y="945" type="curve" smooth="yes"/>
      <point x="159" y="840" type="line" smooth="yes"/>
      <point x="159" y="797"/>
      <point x="183" y="788"/>
      <point x="226" y="788" type="curve" smooth="yes"/>
      <point x="378" y="788" type="line" smooth="yes"/>
      <point x="398" y="788"/>
      <point x="398" y="771"/>
      <point x="398" y="751" type="curve" smooth="yes"/>
      <point x="398" y="77" type="line" smooth="yes"/>
      <point x="398" y="34"/>
      <point x="432" y="0"/>
    </contour>
  </outline>
</glyph>
<glyph name="h" format="1">
  <advance width="2185"/>
  <unicode hex="0068"/>
  <outline>
    <contour>
      <point x="276" y="0" type="curve" smooth="yes"/>
      <point x="728" y="0" type="line" smooth="yes"/>
      <point x="771" y="0"/>
      <point x="805" y="34"/>
      <point x="805" y="77" type="curve" smooth="yes"/>
      <point x="805" y="496" type="line" smooth="yes"/>
      <point x="805" y="629"/>
      <point x="901" y="760"/>
      <point x="1098" y="760" type="curve" smooth="yes"/>
      <point x="1284" y="760"/>
      <point x="1380" y="627"/>
      <point x="1380" y="496" type="curve" smooth="yes"/>
      <point x="1380" y="77" type="line" smooth="yes"/>
      <point x="1380" y="34"/>
      <point x="1414" y="0"/>
      <point x="1457" y="0" type="curve" smooth="yes"/>
      <point x="1926" y="0" type="line" smooth="yes"/>
      <point x="1969" y="0"/>
      <point x="2003" y="34"/>
      <point x="2003" y="77" type="curve" smooth="yes"/>
      <point x="2003" y="512" type="line" smooth="yes"/>
      <point x="2003" y="864"/>
      <point x="1665" y="1053"/>
      <point x="1311" y="1053" type="curve" smooth="yes"/>
      <point x="1139" y="1053"/>
      <point x="968" y="1008"/>
      <point x="835" y="919" type="curve" smooth="yes"/>
      <point x="822" y="910"/>
      <point x="805" y="918"/>
      <point x="805" y="935" type="curve" smooth="yes"/>
      <point x="805" y="1359" type="line" smooth="yes"/>
      <point x="805" y="1402"/>
      <point x="771" y="1436"/>
      <point x="728" y="1436" type="curve" smooth="yes"/>
      <point x="276" y="1436" type="line" smooth="yes"/>
      <point x="233" y="1436"/>
      <point x="199" y="1402"/>
      <point x="199" y="1359" type="curve" smooth="yes"/>
      <point x="199" y="77" type="line" smooth="yes"/>
      <point x="199" y="34"/>
      <point x="233" y="0"/>
    </contour>
  </outline>
</glyph>
<glyph name="i" format="1">
  <advance width="1061"/>
  <unicode hex="0069"/>
  <outline>
    <contour>
      <point x="303" y="0" type="curve" smooth="yes"/>
      <point x="755" y="0" type="line" smooth="yes"/>
      <point x="798" y="0"/>
      <point x="832" y="34"/>
      <point x="832" y="77" type="curve" smooth="yes"/>
      <point x="832" y="929" type="line" smooth="yes"/>
      <point x="832" y="972"/>
      <point x="798" y="1006"/>
      <point x="755" y="1006" type="curve" smooth="yes"/>
      <point x="303" y="1006" type="line" smooth="yes"/>
      <point x="260" y="1006"/>
      <point x="226" y="972"/>
      <point x="226" y="929" type="curve" smooth="yes"/>
      <point x="226" y="77" type="line" smooth="yes"/>
      <point x="226" y="34"/>
      <point x="260" y="0"/>
    </contour>
    <contour>
      <point x="303" y="1152" type="curve" smooth="yes"/>
      <point x="755" y="1152" type="line" smooth="yes"/>
      <point x="798" y="1152"/>
      <point x="832" y="1186"/>
      <point x="832" y="1229" type="curve" smooth="yes"/>
      <point x="832" y="1458" type="line" smooth="yes"/>
      <point x="832" y="1501"/>
      <point x="798" y="1535"/>
      <point x="755" y="1535" type="curve" smooth="yes"/>
      <point x="303" y="1535" type="line" smooth="yes"/>
      <point x="260" y="1535"/>
      <point x="226" y="1501"/>
      <point x="226" y="1458" type="curve" smooth="yes"/>
      <point x="226" y="1229" type="line" smooth="yes"/>
      <point x="226" y="1186"/>
      <point x="260" y="1152"/>
    </contour>
  </outline>
</glyph>
<glyph name="j" format="1">
  <advance width="1357"/>
  <unicode hex="006A"/>
  <outline>
    <contour>
      <point x="551" y="-451" type="curve" smooth="yes"/>
      <point x="843" y="-426"/>
      <point x="1127" y="-313"/>
      <point x="1127" y="12" type="curve" smooth="yes"/>
      <point x="1127" y="929" type="line" smooth="yes"/>
      <point x="1127" y="972"/>
      <point x="1093" y="1006"/>
      <point x="1050" y="1006" type="curve" smooth="yes"/>
      <point x="597" y="1006" type="line" smooth="yes"/>
      <point x="554" y="1006"/>
      <point x="520" y="972"/>
      <point x="520" y="929" type="curve" smooth="yes"/>
      <point x="520" y="0" type="line" smooth="yes"/>
      <point x="520" y="-112"/>
      <point x="400" y="-135"/>
      <point x="291" y="-135" type="curve" smooth="yes"/>
      <point x="250" y="-135"/>
      <point x="210" y="-132"/>
      <point x="175" y="-128" type="curve" smooth="yes"/>
      <point x="134" y="-123"/>
      <point x="99" y="-154"/>
      <point x="99" y="-195" type="curve" smooth="yes"/>
      <point x="99" y="-246"/>
      <point x="99" y="-298"/>
      <point x="99" y="-349" type="curve" smooth="yes"/>
      <point x="99" y="-393"/>
      <point x="133" y="-431"/>
      <point x="176" y="-437" type="curve" smooth="yes"/>
      <point x="284" y="-451"/>
      <point x="420" y="-464"/>
    </contour>
    <contour>
      <point x="596" y="1152" type="curve" smooth="yes"/>
      <point x="1048" y="1152" type="line" smooth="yes"/>
      <point x="1091" y="1152"/>
      <point x="1125" y="1186"/>
      <point x="1125" y="1229" type="curve" smooth="yes"/>
      <point x="1125" y="1458" type="line" smooth="yes"/>
      <point x="1125" y="1501"/>
      <point x="1091" y="1535"/>
      <point x="1048" y="1535" type="curve" smooth="yes"/>
      <point x="596" y="1535" type="line" smooth="yes"/>
      <point x="553" y="1535"/>
      <point x="519" y="1501"/>
      <point x="519" y="1458" type="curve" smooth="yes"/>
      <point x="519" y="1229" type="line" smooth="yes"/>
      <point x="519" y="1186"/>
      <point x="553" y="1152"/>
    </contour>
  </outline>
</glyph>
<glyph name="k" format="1">
  <advance width="2144"/>
  <unicode hex="006B"/>
  <outline>
    <contour>
      <point x="277" y="0" type="curve" smooth="yes"/>
      <point x="729" y="0" type="line" smooth="yes"/>
      <point x="772" y="0"/>
      <point x="806" y="34"/>
      <point x="806" y="77" type="curve" smooth="yes"/>
      <point x="806" y="207" type="line" smooth="yes"/>
      <point x="806" y="230"/>
      <point x="817" y="253"/>
      <point x="834" y="268" type="curve" smooth="yes"/>
      <point x="942" y="361" type="line" smooth="yes"/>
      <point x="949" y="367"/>
      <point x="958" y="370"/>
      <point x="967" y="370" type="curve" smooth="yes"/>
      <point x="977" y="370"/>
      <point x="987" y="366"/>
      <point x="995" y="358" type="curve" smooth="yes"/>
      <point x="1268" y="57" type="line" smooth="yes"/>
      <point x="1300" y="22"/>
      <point x="1321" y="0"/>
      <point x="1368" y="0" type="curve" smooth="yes"/>
      <point x="1935" y="0" type="line" smooth="yes"/>
      <point x="1955" y="0"/>
      <point x="1967" y="16"/>
      <point x="1967" y="32" type="curve" smooth="yes"/>
      <point x="1967" y="40"/>
      <point x="1964" y="48"/>
      <point x="1958" y="54" type="curve" smooth="yes"/>
      <point x="1442" y="574" type="line" smooth="yes"/>
      <point x="1436" y="580"/>
      <point x="1433" y="588"/>
      <point x="1433" y="596" type="curve" smooth="yes"/>
      <point x="1433" y="606"/>
      <point x="1437" y="616"/>
      <point x="1446" y="622" type="curve" smooth="yes"/>
      <point x="1909" y="961" type="line" smooth="yes"/>
      <point x="1916" y="966"/>
      <point x="1920" y="973"/>
      <point x="1920" y="981" type="curve" smooth="yes"/>
      <point x="1920" y="994"/>
      <point x="1910" y="1006"/>
      <point x="1894" y="1006" type="curve" smooth="yes"/>
      <point x="1264" y="1006" type="line" smooth="yes"/>
      <point x="1217" y="1006"/>
      <point x="1163" y="988"/>
      <point x="1126" y="960" type="curve" smooth="yes"/>
      <point x="836" y="743" type="line"/>
      <point x="832" y="741"/>
      <point x="828" y="739"/>
      <point x="825" y="739" type="curve" smooth="yes"/>
      <point x="815" y="739"/>
      <point x="806" y="747"/>
      <point x="806" y="758" type="curve" smooth="yes"/>
      <point x="806" y="1398" type="line" smooth="yes"/>
      <point x="806" y="1441"/>
      <point x="772" y="1475"/>
      <point x="729" y="1475" type="curve" smooth="yes"/>
      <point x="277" y="1475" type="line" smooth="yes"/>
      <point x="234" y="1475"/>
      <point x="200" y="1441"/>
      <point x="200" y="1398" type="curve" smooth="yes"/>
      <point x="200" y="77" type="line" smooth="yes"/>
      <point x="200" y="34"/>
      <point x="234" y="0"/>
    </contour>
  </outline>
</glyph>
<glyph name="l" format="1">
  <advance width="1007"/>
  <unicode hex="006C"/>
  <outline>
    <contour>
      <point x="277" y="0" type="curve" smooth="yes"/>
      <point x="729" y="0" type="line" smooth="yes"/>
      <point x="772" y="0"/>
      <point x="806" y="34"/>
      <point x="806" y="77" type="curve" smooth="yes"/>
      <point x="806" y="1398" type="line" smooth="yes"/>
      <point x="806" y="1441"/>
      <point x="772" y="1475"/>
      <point x="729" y="1475" type="curve" smooth="yes"/>
      <point x="277" y="1475" type="line" smooth="yes"/>
      <point x="234" y="1475"/>
      <point x="200" y="1441"/>
      <point x="200" y="1398" type="curve" smooth="yes"/>
      <point x="200" y="77" type="line" smooth="yes"/>
      <point x="200" y="34"/>
      <point x="234" y="0"/>
    </contour>
  </outline>
</glyph>
<glyph name="m" format="1">
  <advance width="3113"/>
  <unicode hex="006D"/>
  <outline>
    <contour>
      <point x="268" y="0" type="curve" smooth="yes"/>
      <point x="720" y="0" type="line" smooth="yes"/>
      <point x="763" y="0"/>
      <point x="797" y="34"/>
      <point x="797" y="77" type="curve" smooth="yes"/>
      <point x="797" y="230"/>
      <point x="797" y="308"/>
      <point x="797" y="387" type="curve" smooth="yes"/>
      <point x="797" y="573"/>
      <point x="822" y="760"/>
      <point x="1028" y="760" type="curve" smooth="yes"/>
      <point x="1172" y="760"/>
      <point x="1249" y="627"/>
      <point x="1249" y="496" type="curve" smooth="yes"/>
      <point x="1249" y="77" type="line" smooth="yes"/>
      <point x="1249" y="34"/>
      <point x="1283" y="0"/>
      <point x="1326" y="0" type="curve" smooth="yes"/>
      <point x="1781" y="0" type="line" smooth="yes"/>
      <point x="1824" y="0"/>
      <point x="1858" y="34"/>
      <point x="1858" y="77" type="curve" smooth="yes"/>
      <point x="1858" y="256" type="line" smooth="yes"/>
      <point x="1858" y="336"/>
      <point x="1858" y="463"/>
      <point x="1858" y="464" type="curve" smooth="yes"/>
      <point x="1858" y="727"/>
      <point x="1978" y="760"/>
      <point x="2081" y="760" type="curve" smooth="yes"/>
      <point x="2240" y="760"/>
      <point x="2308" y="680"/>
      <point x="2308" y="496" type="curve" smooth="yes"/>
      <point x="2308" y="77" type="line" smooth="yes"/>
      <point x="2308" y="34"/>
      <point x="2342" y="0"/>
      <point x="2385" y="0" type="curve" smooth="yes"/>
      <point x="2854" y="0" type="line" smooth="yes"/>
      <point x="2897" y="0"/>
      <point x="2931" y="34"/>
      <point x="2931" y="77" type="curve" smooth="yes"/>
      <point x="2931" y="512" type="line" smooth="yes"/>
      <point x="2931" y="875"/>
      <point x="2597" y="1053"/>
      <point x="2247" y="1053" type="curve" smooth="yes"/>
      <point x="2060" y="1053"/>
      <point x="1874" y="994"/>
      <point x="1750" y="882" type="curve" smooth="yes"/>
      <point x="1741" y="874"/>
      <point x="1732" y="871"/>
      <point x="1723" y="871" type="curve" smooth="yes"/>
      <point x="1714" y="871"/>
      <point x="1705" y="874"/>
      <point x="1696" y="882" type="curve" smooth="yes"/>
      <point x="1568" y="996"/>
      <point x="1377" y="1053"/>
      <point x="1178" y="1053" type="curve" smooth="yes"/>
      <point x="956" y="1053"/>
      <point x="743" y="971"/>
      <point x="627" y="811" type="curve" smooth="yes"/>
      <point x="621" y="803"/>
      <point x="614" y="800"/>
      <point x="606" y="800" type="curve" smooth="yes"/>
      <point x="598" y="800"/>
      <point x="590" y="804"/>
      <point x="585" y="812" type="curve" smooth="yes"/>
      <point x="498" y="942" type="line" smooth="yes"/>
      <point x="472" y="981"/>
      <point x="425" y="1006"/>
      <point x="378" y="1006" type="curve" smooth="yes"/>
      <point x="268" y="1006" type="line" smooth="yes"/>
      <point x="225" y="1006"/>
      <point x="191" y="972"/>
      <point x="191" y="929" type="curve" smooth="yes"/>
      <point x="191" y="77" type="line" smooth="yes"/>
      <point x="191" y="34"/>
      <point x="225" y="0"/>
    </contour>
  </outline>
</glyph>
<glyph name="n" format="1">
  <advance width="2190"/>
  <unicode hex="006E"/>
  <outline>
    <contour>
      <point x="268" y="0" type="curve" smooth="yes"/>
      <point x="720" y="0" type="line" smooth="yes"/>
      <point x="763" y="0"/>
      <point x="797" y="34"/>
      <point x="797" y="77" type="curve" smooth="yes"/>
      <point x="797" y="496" type="line" smooth="yes"/>
      <point x="797" y="629"/>
      <point x="893" y="760"/>
      <point x="1090" y="760" type="curve" smooth="yes"/>
      <point x="1276" y="760"/>
      <point x="1385" y="627"/>
      <point x="1385" y="496" type="curve" smooth="yes"/>
      <point x="1385" y="77" type="line" smooth="yes"/>
      <point x="1385" y="34"/>
      <point x="1419" y="0"/>
      <point x="1462" y="0" type="curve" smooth="yes"/>
      <point x="1930" y="0" type="line" smooth="yes"/>
      <point x="1973" y="0"/>
      <point x="2007" y="34"/>
      <point x="2007" y="77" type="curve" smooth="yes"/>
      <point x="2007" y="512" type="line" smooth="yes"/>
      <point x="2007" y="879"/>
      <point x="1702" y="1053"/>
      <point x="1249" y="1053" type="curve" smooth="yes"/>
      <point x="1004" y="1053"/>
      <point x="758" y="971"/>
      <point x="628" y="810" type="curve" smooth="yes"/>
      <point x="622" y="803"/>
      <point x="615" y="799"/>
      <point x="607" y="799" type="curve" smooth="yes"/>
      <point x="599" y="799"/>
      <point x="590" y="804"/>
      <point x="585" y="812" type="curve" smooth="yes"/>
      <point x="498" y="942" type="line" smooth="yes"/>
      <point x="472" y="981"/>
      <point x="425" y="1006"/>
      <point x="378" y="1006" type="curve" smooth="yes"/>
      <point x="268" y="1006" type="line" smooth="yes"/>
      <point x="225" y="1006"/>
      <point x="191" y="972"/>
      <point x="191" y="929" type="curve" smooth="yes"/>
      <point x="191" y="77" type="line" smooth="yes"/>
      <point x="191" y="34"/>
      <point x="225" y="0"/>
    </contour>
  </outline>
</glyph>
<glyph name="o" format="1">
  <advance width="2133"/>
  <unicode hex="006F"/>
  <outline>
    <contour>
      <point x="1064" y="233" type="curve" smooth="yes"/>
      <point x="873" y="233"/>
      <point x="767" y="319"/>
      <point x="767" y="508" type="curve" smooth="yes"/>
      <point x="767" y="662"/>
      <point x="867" y="780"/>
      <point x="1064" y="780" type="curve" smooth="yes"/>
      <point x="1261" y="780"/>
      <point x="1361" y="662"/>
      <point x="1361" y="508" type="curve" smooth="yes"/>
      <point x="1361" y="319"/>
      <point x="1254" y="233"/>
    </contour>
    <contour>
      <point x="1064" y="-41" type="curve" smooth="yes"/>
      <point x="1449" y="-41"/>
      <point x="1963" y="0"/>
      <point x="1963" y="508" type="curve" smooth="yes"/>
      <point x="1963" y="1006"/>
      <point x="1414" y="1053"/>
      <point x="1064" y="1053" type="curve" smooth="yes"/>
      <point x="714" y="1053"/>
      <point x="165" y="1006"/>
      <point x="165" y="508" type="curve" smooth="yes"/>
      <point x="165" y="0"/>
      <point x="679" y="-41"/>
    </contour>
  </outline>
</glyph>
<glyph name="q" format="1">
  <advance width="2176"/>
  <unicode hex="0071"/>
  <outline>
    <contour>
      <point x="1451" y="-299" type="curve" smooth="yes"/>
      <point x="1903" y="-299" type="line" smooth="yes"/>
      <point x="1946" y="-299"/>
      <point x="1980" y="-265"/>
      <point x="1980" y="-222" type="curve" smooth="yes"/>
      <point x="1980" y="920" type="line" smooth="yes"/>
      <point x="1980" y="963"/>
      <point x="1946" y="997"/>
      <point x="1903" y="997" type="curve" smooth="yes"/>
      <point x="1793" y="997" type="line" smooth="yes"/>
      <point x="1746" y="997"/>
      <point x="1699" y="972"/>
      <point x="1672" y="934" type="curve" smooth="yes"/>
      <point x="1586" y="811" type="line" smooth="yes"/>
      <point x="1580" y="803"/>
      <point x="1572" y="799"/>
      <point x="1564" y="799" type="curve" smooth="yes"/>
      <point x="1556" y="799"/>
      <point x="1548" y="803"/>
      <point x="1542" y="810" type="curve" smooth="yes"/>
      <point x="1412" y="971"/>
      <point x="1166" y="1053"/>
      <point x="921" y="1053" type="curve" smooth="yes"/>
      <point x="540" y="1053"/>
      <point x="163" y="879"/>
      <point x="163" y="512" type="curve" smooth="yes"/>
      <point x="163" y="123"/>
      <point x="532" y="-41"/>
      <point x="878" y="-41" type="curve" smooth="yes"/>
      <point x="1056" y="-41"/>
      <point x="1230" y="-7"/>
      <point x="1343" y="63" type="curve"/>
      <point x="1347" y="65"/>
      <point x="1351" y="67"/>
      <point x="1355" y="67" type="curve" smooth="yes"/>
      <point x="1365" y="67"/>
      <point x="1374" y="58"/>
      <point x="1374" y="46" type="curve" smooth="yes"/>
      <point x="1374" y="-222" type="line" smooth="yes"/>
      <point x="1374" y="-265"/>
      <point x="1408" y="-299"/>
    </contour>
    <contour>
      <point x="1079" y="231" type="curve" smooth="yes"/>
      <point x="894" y="231"/>
      <point x="798" y="362"/>
      <point x="798" y="496" type="curve" smooth="yes"/>
      <point x="798" y="627"/>
      <point x="894" y="760"/>
      <point x="1081" y="760" type="curve" smooth="yes"/>
      <point x="1277" y="760"/>
      <point x="1374" y="629"/>
      <point x="1374" y="496" type="curve" smooth="yes"/>
      <point x="1374" y="365"/>
      <point x="1277" y="231"/>
    </contour>
  </outline>
</glyph>
<glyph name="r" format="1">
  <advance width="1471"/>
  <unicode hex="0072"/>
  <outline>
    <contour>
      <point x="268" y="0" type="curve" smooth="yes"/>
      <point x="720" y="0" type="line" smooth="yes"/>
      <point x="763" y="0"/>
      <point x="797" y="34"/>
      <point x="797" y="77" type="curve"/>
      <point x="797" y="77"/>
      <point x="797" y="421"/>
      <point x="797" y="441" type="curve" smooth="yes"/>
      <point x="797" y="543"/>
      <point x="857" y="720"/>
      <point x="1077" y="720" type="curve"/>
      <point x="1120" y="720"/>
      <point x="1274" y="720"/>
      <point x="1279" y="720" type="curve" smooth="yes"/>
      <point x="1315" y="720"/>
      <point x="1323" y="754"/>
      <point x="1323" y="786" type="curve" smooth="yes"/>
      <point x="1323" y="991" type="line" smooth="yes"/>
      <point x="1323" y="1026"/>
      <point x="1298" y="1053"/>
      <point x="1164" y="1053" type="curve" smooth="yes"/>
      <point x="1149" y="1053"/>
      <point x="1131" y="1053"/>
      <point x="1113" y="1053" type="curve"/>
      <point x="961" y="1051"/>
      <point x="776" y="983"/>
      <point x="629" y="809" type="curve" smooth="yes"/>
      <point x="623" y="802"/>
      <point x="616" y="799"/>
      <point x="608" y="799" type="curve" smooth="yes"/>
      <point x="600" y="799"/>
      <point x="591" y="803"/>
      <point x="585" y="811" type="curve"/>
      <point x="498" y="942" type="line" smooth="yes"/>
      <point x="472" y="981"/>
      <point x="456" y="1006"/>
      <point x="409" y="1006" type="curve" smooth="yes"/>
      <point x="248" y="1006" type="line" smooth="yes"/>
      <point x="205" y="1006"/>
      <point x="191" y="972"/>
      <point x="191" y="929" type="curve" smooth="yes"/>
      <point x="191" y="77" type="line" smooth="yes"/>
      <point x="191" y="34"/>
      <point x="225" y="0"/>
    </contour>
  </outline>
</glyph>
<glyph name="s" format="1">
  <advance width="1959"/>
  <unicode hex="0073"/>
  <outline>
    <contour>
      <point x="950" y="-41" type="curve" smooth="yes"/>
      <point x="1392" y="-41"/>
      <point x="1786" y="19"/>
      <point x="1786" y="307" type="curve" smooth="yes"/>
      <point x="1786" y="640"/>
      <point x="1370" y="651"/>
      <point x="1064" y="669" type="curve" smooth="yes"/>
      <point x="828" y="683"/>
      <point x="686" y="680"/>
      <point x="686" y="729" type="curve" smooth="yes"/>
      <point x="686" y="760"/>
      <point x="735" y="786"/>
      <point x="967" y="786" type="curve" smooth="yes"/>
      <point x="1213" y="786"/>
      <point x="1364" y="767"/>
      <point x="1504" y="718" type="curve" smooth="yes"/>
      <point x="1547" y="704"/>
      <point x="1592" y="722"/>
      <point x="1612" y="761" type="curve" smooth="yes"/>
      <point x="1662" y="866" type="line" smooth="yes"/>
      <point x="1680" y="901"/>
      <point x="1662" y="948"/>
      <point x="1626" y="963" type="curve" smooth="yes"/>
      <point x="1401" y="1051"/>
      <point x="1175" y="1053"/>
      <point x="932" y="1053" type="curve" smooth="yes"/>
      <point x="682" y="1053"/>
      <point x="180" y="1018"/>
      <point x="180" y="698" type="curve" smooth="yes"/>
      <point x="180" y="419"/>
      <point x="636" y="398"/>
      <point x="935" y="376" type="curve" smooth="yes"/>
      <point x="1195" y="357"/>
      <point x="1246" y="357"/>
      <point x="1246" y="293" type="curve" smooth="yes"/>
      <point x="1246" y="249"/>
      <point x="1184" y="236"/>
      <point x="1056" y="236" type="curve" smooth="yes"/>
      <point x="807" y="236"/>
      <point x="580" y="257"/>
      <point x="358" y="323" type="curve" smooth="yes"/>
      <point x="315" y="336"/>
      <point x="271" y="316"/>
      <point x="251" y="275" type="curve" smooth="yes"/>
      <point x="191" y="155" type="line" smooth="yes"/>
      <point x="175" y="121"/>
      <point x="194" y="72"/>
      <point x="230" y="59" type="curve" smooth="yes"/>
      <point x="432" y="-18"/>
      <point x="745" y="-41"/>
    </contour>
  </outline>
</glyph>
<glyph name="t" format="1">
  <advance width="1776"/>
  <unicode hex="0074"/>
  <outline>
    <contour>
      <point x="1162" y="-41" type="curve" smooth="yes"/>
      <point x="1294" y="-41"/>
      <point x="1421" y="-25"/>
      <point x="1523" y="-3" type="curve" smooth="yes"/>
      <point x="1564" y="6"/>
      <point x="1597" y="48"/>
      <point x="1597" y="90" type="curve" smooth="yes"/>
      <point x="1597" y="253" type="line" smooth="yes"/>
      <point x="1597" y="294"/>
      <point x="1562" y="321"/>
      <point x="1523" y="311" type="curve" smooth="yes"/>
      <point x="1453" y="294"/>
      <point x="1364" y="279"/>
      <point x="1279" y="279" type="curve" smooth="yes"/>
      <point x="1146" y="279"/>
      <point x="1027" y="317"/>
      <point x="1027" y="455" type="curve" smooth="yes"/>
      <point x="1027" y="751" type="line" smooth="yes"/>
      <point x="1027" y="771"/>
      <point x="1044" y="788"/>
      <point x="1064" y="788" type="curve" smooth="yes"/>
      <point x="1434" y="788" type="line" smooth="yes"/>
      <point x="1477" y="788"/>
      <point x="1511" y="822"/>
      <point x="1511" y="865" type="curve" smooth="yes"/>
      <point x="1511" y="929" type="line" smooth="yes"/>
      <point x="1511" y="972"/>
      <point x="1477" y="1006"/>
      <point x="1434" y="1006" type="curve" smooth="yes"/>
      <point x="1064" y="1006" type="line" smooth="yes"/>
      <point x="1044" y="1006"/>
      <point x="1027" y="1023"/>
      <point x="1027" y="1043" type="curve" smooth="yes"/>
      <point x="1027" y="1398" type="line" smooth="yes"/>
      <point x="1027" y="1441"/>
      <point x="993" y="1475"/>
      <point x="950" y="1475" type="curve" smooth="yes"/>
      <point x="499" y="1475" type="line" smooth="yes"/>
      <point x="456" y="1475"/>
      <point x="422" y="1441"/>
      <point x="422" y="1398" type="curve" smooth="yes"/>
      <point x="392" y="1043" type="line" smooth="yes"/>
      <point x="392" y="1023"/>
      <point x="375" y="1006"/>
      <point x="355" y="1006" type="curve" smooth="yes"/>
      <point x="230" y="1006" type="line" smooth="yes"/>
      <point x="187" y="1006"/>
      <point x="153" y="972"/>
      <point x="153" y="929" type="curve" smooth="yes"/>
      <point x="153" y="865" type="line" smooth="yes"/>
      <point x="153" y="822"/>
      <point x="187" y="788"/>
      <point x="230" y="788" type="curve" smooth="yes"/>
      <point x="355" y="788" type="line" smooth="yes"/>
      <point x="375" y="788"/>
      <point x="392" y="771"/>
      <point x="392" y="751" type="curve" smooth="yes"/>
      <point x="392" y="500" type="line" smooth="yes"/>
      <point x="392" y="79"/>
      <point x="796" y="-41"/>
    </contour>
  </outline>
</glyph>
<glyph name="u" format="1">
  <advance width="2190"/>
  <unicode hex="0075"/>
  <outline>
    <contour>
      <point x="937" y="-41" type="curve" smooth="yes"/>
      <point x="1182" y="-41"/>
      <point x="1428" y="41"/>
      <point x="1558" y="201" type="curve" smooth="yes"/>
      <point x="1564" y="208"/>
      <point x="1571" y="212"/>
      <point x="1579" y="212" type="curve" smooth="yes"/>
      <point x="1587" y="212"/>
      <point x="1596" y="207"/>
      <point x="1601" y="199" type="curve" smooth="yes"/>
      <point x="1690" y="64" type="line" smooth="yes"/>
      <point x="1715" y="25"/>
      <point x="1762" y="0"/>
      <point x="1809" y="0" type="curve" smooth="yes"/>
      <point x="1919" y="0" type="line" smooth="yes"/>
      <point x="1962" y="0"/>
      <point x="1996" y="34"/>
      <point x="1996" y="77" type="curve" smooth="yes"/>
      <point x="1996" y="941" type="line" smooth="yes"/>
      <point x="1996" y="984"/>
      <point x="1962" y="1018"/>
      <point x="1919" y="1018" type="curve" smooth="yes"/>
      <point x="1467" y="1018" type="line" smooth="yes"/>
      <point x="1424" y="1018"/>
      <point x="1390" y="984"/>
      <point x="1390" y="941" type="curve" smooth="yes"/>
      <point x="1390" y="516" type="line" smooth="yes"/>
      <point x="1390" y="383"/>
      <point x="1293" y="252"/>
      <point x="1097" y="252" type="curve" smooth="yes"/>
      <point x="910" y="252"/>
      <point x="814" y="385"/>
      <point x="814" y="516" type="curve" smooth="yes"/>
      <point x="814" y="941" type="line" smooth="yes"/>
      <point x="814" y="984"/>
      <point x="780" y="1018"/>
      <point x="737" y="1018" type="curve" smooth="yes"/>
      <point x="256" y="1018" type="line" smooth="yes"/>
      <point x="213" y="1018"/>
      <point x="179" y="984"/>
      <point x="179" y="941" type="curve" smooth="yes"/>
      <point x="179" y="500" type="line" smooth="yes"/>
      <point x="179" y="133"/>
      <point x="556" y="-41"/>
    </contour>
  </outline>
</glyph>
<glyph name="v" format="1">
  <advance width="2071"/>
  <unicode hex="0076"/>
  <outline>
    <contour>
      <point x="730" y="0" type="curve" smooth="yes"/>
      <point x="1311" y="0" type="line" smooth="yes"/>
      <point x="1358" y="0"/>
      <point x="1403" y="27"/>
      <point x="1425" y="67" type="curve" smooth="yes"/>
      <point x="1910" y="939" type="line" smooth="yes"/>
      <point x="1914" y="946"/>
      <point x="1916" y="954"/>
      <point x="1916" y="961" type="curve" smooth="yes"/>
      <point x="1916" y="984"/>
      <point x="1897" y="1006"/>
      <point x="1870" y="1006" type="curve" smooth="yes"/>
      <point x="1430" y="1006" type="line" smooth="yes"/>
      <point x="1384" y="1006"/>
      <point x="1340" y="978"/>
      <point x="1320" y="937" type="curve" smooth="yes"/>
      <point x="1082" y="431" type="line" smooth="yes"/>
      <point x="1079" y="424"/>
      <point x="1072" y="421"/>
      <point x="1066" y="421" type="curve" smooth="yes"/>
      <point x="1060" y="421"/>
      <point x="1054" y="424"/>
      <point x="1050" y="431" type="curve"/>
      <point x="814" y="937" type="line" smooth="yes"/>
      <point x="795" y="978"/>
      <point x="751" y="1006"/>
      <point x="705" y="1006" type="curve" smooth="yes"/>
      <point x="191" y="1006" type="line" smooth="yes"/>
      <point x="164" y="1006"/>
      <point x="145" y="984"/>
      <point x="145" y="960" type="curve" smooth="yes"/>
      <point x="145" y="952"/>
      <point x="146" y="945"/>
      <point x="150" y="938" type="curve" smooth="yes"/>
      <point x="617" y="68" type="line" smooth="yes"/>
      <point x="639" y="27"/>
      <point x="683" y="0"/>
    </contour>
  </outline>
</glyph>
<glyph name="w" format="1">
  <advance width="2773"/>
  <unicode hex="0077"/>
  <outline>
    <contour>
      <point x="578" y="0" type="curve" smooth="yes"/>
      <point x="1159" y="0" type="line" smooth="yes"/>
      <point x="1204" y="0"/>
      <point x="1245" y="31"/>
      <point x="1257" y="74" type="curve" smooth="yes"/>
      <point x="1359" y="427" type="line"/>
      <point x="1360" y="432"/>
      <point x="1365" y="435"/>
      <point x="1369" y="435" type="curve" smooth="yes"/>
      <point x="1373" y="435"/>
      <point x="1377" y="432"/>
      <point x="1379" y="427" type="curve"/>
      <point x="1474" y="74" type="line" smooth="yes"/>
      <point x="1486" y="31"/>
      <point x="1526" y="0"/>
      <point x="1571" y="0" type="curve" smooth="yes"/>
      <point x="2152" y="0" type="line" smooth="yes"/>
      <point x="2198" y="0"/>
      <point x="2241" y="29"/>
      <point x="2258" y="71" type="curve" smooth="yes"/>
      <point x="2610" y="935" type="line" smooth="yes"/>
      <point x="2613" y="942"/>
      <point x="2614" y="948"/>
      <point x="2614" y="955" type="curve" smooth="yes"/>
      <point x="2614" y="982"/>
      <point x="2592" y="1006"/>
      <point x="2562" y="1006" type="curve" smooth="yes"/>
      <point x="2142" y="1006" type="line" smooth="yes"/>
      <point x="2097" y="1006"/>
      <point x="2057" y="975"/>
      <point x="2046" y="932" type="curve" smooth="yes"/>
      <point x="1917" y="433" type="line"/>
      <point x="1916" y="428"/>
      <point x="1911" y="425"/>
      <point x="1907" y="425" type="curve" smooth="yes"/>
      <point x="1903" y="425"/>
      <point x="1898" y="427"/>
      <point x="1897" y="432" type="curve"/>
      <point x="1747" y="933" type="line" smooth="yes"/>
      <point x="1734" y="976"/>
      <point x="1693" y="1006"/>
      <point x="1648" y="1006" type="curve" smooth="yes"/>
      <point x="1176" y="1006" type="line" smooth="yes"/>
      <point x="1131" y="1006"/>
      <point x="1090" y="976"/>
      <point x="1077" y="933" type="curve" smooth="yes"/>
      <point x="925" y="432" type="line" smooth="yes"/>
      <point x="924" y="428"/>
      <point x="919" y="425"/>
      <point x="915" y="425" type="curve" smooth="yes"/>
      <point x="911" y="425"/>
      <point x="907" y="428"/>
      <point x="906" y="433" type="curve" smooth="yes"/>
      <point x="790" y="931" type="line" smooth="yes"/>
      <point x="780" y="975"/>
      <point x="741" y="1006"/>
      <point x="696" y="1006" type="curve" smooth="yes"/>
      <point x="203" y="1006" type="line" smooth="yes"/>
      <point x="172" y="1006"/>
      <point x="150" y="981"/>
      <point x="150" y="953" type="curve" smooth="yes"/>
      <point x="150" y="947"/>
      <point x="151" y="940"/>
      <point x="153" y="934" type="curve" smooth="yes"/>
      <point x="474" y="72" type="line" smooth="yes"/>
      <point x="490" y="29"/>
      <point x="532" y="0"/>
    </contour>
  </outline>
</glyph>
<glyph name="x" format="1">
  <advance width="2363"/>
  <unicode hex="0078"/>
  <outline>
    <contour>
      <point x="230" y="0" type="curve" smooth="yes"/>
      <point x="792" y="0" type="line" smooth="yes"/>
      <point x="839" y="0"/>
      <point x="893" y="18"/>
      <point x="930" y="47" type="curve" smooth="yes"/>
      <point x="1096" y="174" type="line"/>
      <point x="1104" y="181"/>
      <point x="1114" y="184"/>
      <point x="1123" y="184" type="curve" smooth="yes"/>
      <point x="1134" y="184"/>
      <point x="1145" y="180"/>
      <point x="1153" y="173" type="curve" smooth="yes"/>
      <point x="1295" y="50" type="line" smooth="yes"/>
      <point x="1330" y="20"/>
      <point x="1383" y="0"/>
      <point x="1430" y="0" type="curve" smooth="yes"/>
      <point x="2169" y="0" type="line" smooth="yes"/>
      <point x="2186" y="0"/>
      <point x="2197" y="13"/>
      <point x="2197" y="27" type="curve" smooth="yes"/>
      <point x="2197" y="35"/>
      <point x="2194" y="43"/>
      <point x="2187" y="48" type="curve"/>
      <point x="1572" y="550" type="line"/>
      <point x="1565" y="555"/>
      <point x="1561" y="564"/>
      <point x="1561" y="572" type="curve" smooth="yes"/>
      <point x="1561" y="581"/>
      <point x="1565" y="589"/>
      <point x="1573" y="595" type="curve" smooth="yes"/>
      <point x="2067" y="960" type="line" smooth="yes"/>
      <point x="2075" y="966"/>
      <point x="2078" y="973"/>
      <point x="2078" y="981" type="curve" smooth="yes"/>
      <point x="2078" y="993"/>
      <point x="2068" y="1006"/>
      <point x="2052" y="1006" type="curve" smooth="yes"/>
      <point x="1530" y="1006" type="line" smooth="yes"/>
      <point x="1483" y="1006"/>
      <point x="1430" y="987"/>
      <point x="1393" y="958" type="curve" smooth="yes"/>
      <point x="1259" y="848" type="line" smooth="yes"/>
      <point x="1251" y="842"/>
      <point x="1241" y="839"/>
      <point x="1231" y="839" type="curve" smooth="yes"/>
      <point x="1220" y="839"/>
      <point x="1210" y="842"/>
      <point x="1202" y="849" type="curve" smooth="yes"/>
      <point x="1077" y="956" type="line" smooth="yes"/>
      <point x="1042" y="987"/>
      <point x="989" y="1006"/>
      <point x="942" y="1006" type="curve" smooth="yes"/>
      <point x="203" y="1006" type="line" smooth="yes"/>
      <point x="186" y="1006"/>
      <point x="175" y="993"/>
      <point x="175" y="979" type="curve" smooth="yes"/>
      <point x="175" y="971"/>
      <point x="178" y="963"/>
      <point x="185" y="958" type="curve"/>
      <point x="756" y="494" type="line"/>
      <point x="763" y="489"/>
      <point x="767" y="480"/>
      <point x="767" y="472" type="curve" smooth="yes"/>
      <point x="767" y="463"/>
      <point x="763" y="455"/>
      <point x="755" y="449" type="curve" smooth="yes"/>
      <point x="214" y="46" type="line"/>
      <point x="207" y="40"/>
      <point x="204" y="33"/>
      <point x="204" y="26" type="curve" smooth="yes"/>
      <point x="204" y="13"/>
      <point x="214" y="0"/>
    </contour>
  </outline>
</glyph>
<glyph name="y" format="1">
  <advance width="1993"/>
  <unicode hex="0079"/>
  <outline>
    <contour>
      <point x="701" y="-694" type="curve" smooth="yes"/>
      <point x="1017" y="-694"/>
      <point x="1162" y="-541"/>
      <point x="1281" y="-279" type="curve" smooth="yes"/>
      <point x="1830" y="936" type="line" smooth="yes"/>
      <point x="1833" y="943"/>
      <point x="1835" y="950"/>
      <point x="1835" y="957" type="curve" smooth="yes"/>
      <point x="1835" y="983"/>
      <point x="1814" y="1006"/>
      <point x="1785" y="1006" type="curve" smooth="yes"/>
      <point x="1407" y="1006" type="line" smooth="yes"/>
      <point x="1361" y="1006"/>
      <point x="1319" y="977"/>
      <point x="1304" y="934" type="curve" smooth="yes"/>
      <point x="1120" y="422" type="line"/>
      <point x="1117" y="415"/>
      <point x="1111" y="411"/>
      <point x="1105" y="411" type="curve" smooth="yes"/>
      <point x="1099" y="411"/>
      <point x="1093" y="414"/>
      <point x="1091" y="420" type="curve"/>
      <point x="834" y="937" type="line" smooth="yes"/>
      <point x="814" y="979"/>
      <point x="769" y="1006"/>
      <point x="723" y="1006" type="curve" smooth="yes"/>
      <point x="209" y="1006" type="line" smooth="yes"/>
      <point x="183" y="1006"/>
      <point x="165" y="985"/>
      <point x="165" y="962" type="curve" smooth="yes"/>
      <point x="165" y="955"/>
      <point x="167" y="947"/>
      <point x="171" y="940" type="curve" smooth="yes"/>
      <point x="808" y="-135" type="line" smooth="yes"/>
      <point x="830" y="-174"/>
      <point x="870" y="-237"/>
      <point x="870" y="-268" type="curve" smooth="yes"/>
      <point x="870" y="-378"/>
      <point x="771" y="-387"/>
      <point x="714" y="-387" type="curve" smooth="yes"/>
      <point x="696" y="-387" type="line"/>
      <point x="665" y="-387"/>
      <point x="565" y="-378"/>
      <point x="514" y="-361" type="curve" smooth="yes"/>
      <point x="507" y="-359"/>
      <point x="499" y="-357"/>
      <point x="492" y="-357" type="curve" smooth="yes"/>
      <point x="467" y="-357"/>
      <point x="441" y="-369"/>
      <point x="431" y="-392" type="curve"/>
      <point x="370" y="-531" type="line"/>
      <point x="365" y="-543"/>
      <point x="363" y="-555"/>
      <point x="363" y="-567" type="curve" smooth="yes"/>
      <point x="363" y="-596"/>
      <point x="375" y="-621"/>
      <point x="395" y="-632" type="curve" smooth="yes"/>
      <point x="476" y="-676"/>
      <point x="583" y="-694"/>
    </contour>
  </outline>
</glyph>
<glyph name="z" format="1">
  <advance width="1781"/>
  <unicode hex="007A"/>
  <outline>
    <contour>
      <point x="226" y="0" type="curve" smooth="yes"/>
      <point x="1557" y="0" type="line" smooth="yes"/>
      <point x="1577" y="0"/>
      <point x="1594" y="17"/>
      <point x="1594" y="37" type="curve" smooth="yes"/>
      <point x="1594" y="237" type="line" smooth="yes"/>
      <point x="1594" y="257"/>
      <point x="1577" y="274"/>
      <point x="1557" y="274" type="curve" smooth="yes"/>
      <point x="999" y="274" type="line"/>
      <point x="1526" y="707" type="line" smooth="yes"/>
      <point x="1544" y="722"/>
      <point x="1555" y="745"/>
      <point x="1555" y="768" type="curve" smooth="yes"/>
      <point x="1555" y="969" type="line" smooth="yes"/>
      <point x="1555" y="989"/>
      <point x="1538" y="1006"/>
      <point x="1518" y="1006" type="curve" smooth="yes"/>
      <point x="230" y="1006" type="line" smooth="yes"/>
      <point x="210" y="1006"/>
      <point x="193" y="989"/>
      <point x="193" y="969" type="curve" smooth="yes"/>
      <point x="193" y="768" type="line" smooth="yes"/>
      <point x="193" y="748"/>
      <point x="210" y="731"/>
      <point x="230" y="731" type="curve" smooth="yes"/>
      <point x="759" y="731" type="line"/>
      <point x="218" y="297" type="line" smooth="yes"/>
      <point x="200" y="283"/>
      <point x="189" y="260"/>
      <point x="189" y="237" type="curve" smooth="yes"/>
      <point x="189" y="37" type="line" smooth="yes"/>
      <point x="189" y="17"/>
      <point x="206" y="0"/>
    </contour>
  </outline>
</glyph>
<glyph name="braceleft" format="1">
  <advance width="1285"/>
  <unicode hex="007B"/>
  <outline>
    <contour>
      <point x="763" y="-123" type="curve" smooth="yes"/>
      <point x="844" y="-123"/>
      <point x="944" y="-123"/>
      <point x="1033" y="-123" type="curve" smooth="yes"/>
      <point x="1075" y="-123"/>
      <point x="1110" y="-88"/>
      <point x="1110" y="-46" type="curve" smooth="yes"/>
      <point x="1110" y="64" type="line" smooth="yes"/>
      <point x="1110" y="116"/>
      <point x="1085" y="147"/>
      <point x="1034" y="158" type="curve" smooth="yes"/>
      <point x="777" y="214"/>
      <point x="995" y="572"/>
      <point x="757" y="695" type="curve" smooth="yes"/>
      <point x="743" y="702"/>
      <point x="743" y="718"/>
      <point x="757" y="725" type="curve" smooth="yes"/>
      <point x="995" y="848"/>
      <point x="777" y="1206"/>
      <point x="1034" y="1262" type="curve" smooth="yes"/>
      <point x="1085" y="1273"/>
      <point x="1110" y="1304"/>
      <point x="1110" y="1356" type="curve" smooth="yes"/>
      <point x="1110" y="1466" type="line" smooth="yes"/>
      <point x="1110" y="1508"/>
      <point x="1075" y="1543"/>
      <point x="1033" y="1543" type="curve" smooth="yes"/>
      <point x="944" y="1543"/>
      <point x="844" y="1543"/>
      <point x="763" y="1543" type="curve" smooth="yes"/>
      <point x="285" y="1543"/>
      <point x="520" y="942"/>
      <point x="228" y="857" type="curve" smooth="yes"/>
      <point x="174" y="841"/>
      <point x="152" y="812"/>
      <point x="152" y="756" type="curve" smooth="yes"/>
      <point x="152" y="664" type="line" smooth="yes"/>
      <point x="152" y="608"/>
      <point x="174" y="579"/>
      <point x="228" y="563" type="curve" smooth="yes"/>
      <point x="520" y="478"/>
      <point x="285" y="-123"/>
    </contour>
  </outline>
</glyph>
<glyph name="dieresis" format="1">
  <advance width="712"/>
  <unicode hex="00A8"/>
  <outline>
    <contour>
      <point x="76" y="0" type="curve" smooth="yes"/>
      <point x="223" y="0" type="line" smooth="yes"/>
      <point x="266" y="0"/>
      <point x="300" y="34"/>
      <point x="300" y="77" type="curve" smooth="yes"/>
      <point x="300" y="213" type="line" smooth="yes"/>
      <point x="300" y="256"/>
      <point x="266" y="290"/>
      <point x="223" y="290" type="curve" smooth="yes"/>
      <point x="76" y="290" type="line" smooth="yes"/>
      <point x="33" y="290"/>
      <point x="-1" y="256"/>
      <point x="-1" y="213" type="curve" smooth="yes"/>
      <point x="-1" y="77" type="line" smooth="yes"/>
      <point x="-1" y="34"/>
      <point x="33" y="0"/>
    </contour>
    <contour>
      <point x="752" y="0" type="curve" smooth="yes"/>
      <point x="899" y="0" type="line" smooth="yes"/>
      <point x="942" y="0"/>
      <point x="976" y="34"/>
      <point x="976" y="77" type="curve" smooth="yes"/>
      <point x="976" y="213" type="line" smooth="yes"/>
      <point x="976" y="256"/>
      <point x="942" y="290"/>
      <point x="899" y="290" type="curve" smooth="yes"/>
      <point x="752" y="290" type="line" smooth="yes"/>
      <point x="709" y="290"/>
      <point x="675" y="256"/>
      <point x="675" y="213" type="curve" smooth="yes"/>
      <point x="675" y="77" type="line" smooth="yes"/>
      <point x="675" y="34"/>
      <point x="709" y="0"/>
    </contour>
  </outline>
</glyph>
<glyph name="acute" format="1">
  <advance width="1745"/>
  <unicode hex="00B4"/>
  <outline>
    <contour>
      <point x="1030" y="1171" type="curve" smooth="yes"/>
      <point x="1067" y="1171"/>
      <point x="1122" y="1171"/>
      <point x="1180" y="1171" type="curve" smooth="yes"/>
      <point x="1218" y="1171"/>
      <point x="1226" y="1193"/>
      <point x="1236" y="1210" type="curve" smooth="yes"/>
      <point x="1419" y="1557" type="line" smooth="yes"/>
      <point x="1426" y="1569"/>
      <point x="1431" y="1583"/>
      <point x="1431" y="1594" type="curve" smooth="yes"/>
      <point x="1431" y="1610"/>
      <point x="1423" y="1622"/>
      <point x="1403" y="1622" type="curve" smooth="yes"/>
      <point x="1126" y="1622" type="line" smooth="yes"/>
      <point x="1082" y="1622"/>
      <point x="1063" y="1610"/>
      <point x="1055" y="1567" type="curve" smooth="yes"/>
      <point x="992" y="1238" type="line" smooth="yes"/>
      <point x="989" y="1224"/>
      <point x="988" y="1212"/>
      <point x="988" y="1203" type="curve" smooth="yes"/>
      <point x="988" y="1176"/>
      <point x="1001" y="1171"/>
    </contour>
  </outline>
</glyph>
<glyph name="cedilla" format="1">
  <advance width="716"/>
  <unicode hex="00B8"/>
  <outline>
    <contour>
      <point x="403.0" y="-642.0" type="curve" smooth="yes"/>
      <point x="547.0" y="-642.0"/>
      <point x="660" y="-573"/>
      <point x="660" y="-395" type="curve" smooth="yes"/>
      <point x="660" y="-284"/>
      <point x="577" y="-156"/>
      <point x="469" y="-156" type="curve" smooth="yes"/>
      <point x="449" y="-156"/>
      <point x="382.0" y="-156.0"/>
      <point x="363.0" y="-156.0" type="curve"/>
      <point x="350.0" y="-156.0"/>
      <point x="347.0" y="-163.0"/>
      <point x="347.0" y="-173.0" type="curve" smooth="yes"/>
      <point x="347.0" y="-187.0"/>
      <point x="347.0" y="-234.0"/>
      <point x="347.0" y="-244.0" type="curve" smooth="yes"/>
      <point x="347.0" y="-255.0"/>
      <point x="363.0" y="-254.0"/>
      <point x="363.0" y="-254.0" type="curve" smooth="yes"/>
      <point x="374.0" y="-254.0"/>
      <point x="391.0" y="-254.0"/>
      <point x="402.0" y="-254.0" type="curve" smooth="yes"/>
      <point x="452.0" y="-254.0"/>
      <point x="483" y="-331"/>
      <point x="483.0" y="-407.0" type="curve" smooth="yes"/>
      <point x="483" y="-496"/>
      <point x="457" y="-527"/>
      <point x="410" y="-527" type="curve" smooth="yes"/>
      <point x="360" y="-527"/>
      <point x="338" y="-489"/>
      <point x="338" y="-449" type="curve" smooth="yes"/>
      <point x="338" y="-432"/>
      <point x="340.0" y="-427.0"/>
      <point x="343.0" y="-409.0" type="curve" smooth="yes"/>
      <point x="346.0" y="-389.0"/>
      <point x="333.0" y="-373.0"/>
      <point x="312.0" y="-373.0" type="curve" smooth="yes"/>
      <point x="232" y="-373" type="line" smooth="yes"/>
      <point x="213" y="-373"/>
      <point x="192" y="-389"/>
      <point x="188" y="-408" type="curve" smooth="yes"/>
      <point x="184" y="-427"/>
      <point x="182" y="-446"/>
      <point x="182" y="-464" type="curve" smooth="yes"/>
      <point x="182" y="-572"/>
      <point x="289.0" y="-642.0"/>
    </contour>
  </outline>
</glyph>
<glyph name="OE" format="1">
  <advance width="3756"/>
  <unicode hex="0152"/>
  <outline>
    <contour>
      <point x="1486" y="-1" type="curve" smooth="yes"/>
      <point x="1559" y="-1"/>
      <point x="1494" y="0"/>
      <point x="3493" y="0" type="curve" smooth="yes"/>
      <point x="3536" y="0"/>
      <point x="3570" y="34"/>
      <point x="3570" y="77" type="curve" smooth="yes"/>
      <point x="3570" y="300" type="line" smooth="yes"/>
      <point x="3570" y="343"/>
      <point x="3536" y="377"/>
      <point x="3493" y="377" type="curve" smooth="yes"/>
      <point x="2519" y="377" type="line" smooth="yes"/>
      <point x="2499" y="377"/>
      <point x="2482" y="394"/>
      <point x="2482" y="414" type="curve" smooth="yes"/>
      <point x="2482" y="541" type="line" smooth="yes"/>
      <point x="2482" y="561"/>
      <point x="2499" y="578"/>
      <point x="2519" y="578" type="curve" smooth="yes"/>
      <point x="3226" y="578" type="line" smooth="yes"/>
      <point x="3269" y="578"/>
      <point x="3303" y="612"/>
      <point x="3303" y="655" type="curve" smooth="yes"/>
      <point x="3303" y="804" type="line" smooth="yes"/>
      <point x="3303" y="847"/>
      <point x="3269" y="881"/>
      <point x="3226" y="881" type="curve" smooth="yes"/>
      <point x="2519" y="881" type="line" smooth="yes"/>
      <point x="2499" y="881"/>
      <point x="2482" y="898"/>
      <point x="2482" y="918" type="curve" smooth="yes"/>
      <point x="2482" y="1018" type="line" smooth="yes"/>
      <point x="2482" y="1038"/>
      <point x="2499" y="1055"/>
      <point x="2519" y="1055" type="curve" smooth="yes"/>
      <point x="3416" y="1055" type="line" smooth="yes"/>
      <point x="3459" y="1055"/>
      <point x="3493" y="1089"/>
      <point x="3493" y="1132" type="curve" smooth="yes"/>
      <point x="3493" y="1361" type="line" smooth="yes"/>
      <point x="3493" y="1403"/>
      <point x="3458" y="1438"/>
      <point x="3416" y="1438" type="curve" smooth="yes"/>
      <point x="1492" y="1438"/>
      <point x="1494" y="1438"/>
      <point x="1403" y="1438" type="curve" smooth="yes"/>
      <point x="872" y="1438"/>
      <point x="162" y="1291"/>
      <point x="162" y="721" type="curve" smooth="yes"/>
      <point x="162" y="70"/>
      <point x="952" y="-1"/>
    </contour>
    <contour>
      <point x="1443" y="376" type="curve" smooth="yes"/>
      <point x="1183" y="376"/>
      <point x="1020" y="454"/>
      <point x="1020" y="721" type="curve" smooth="yes"/>
      <point x="1020" y="988"/>
      <point x="1183" y="1065"/>
      <point x="1443" y="1065" type="curve" smooth="yes"/>
      <point x="1507" y="1065"/>
      <point x="1603" y="1065"/>
      <point x="1655" y="1065" type="curve" smooth="yes"/>
      <point x="1675" y="1065"/>
      <point x="1692" y="1048"/>
      <point x="1692" y="1028" type="curve" smooth="yes"/>
      <point x="1692" y="413" type="line" smooth="yes"/>
      <point x="1692" y="393"/>
      <point x="1675" y="376"/>
      <point x="1655" y="376" type="curve" smooth="yes"/>
      <point x="1603" y="376"/>
      <point x="1507" y="376"/>
    </contour>
  </outline>
</glyph>
<glyph name="circumflex" format="1">
  <advance width="953"/>
  <unicode hex="02C6"/>
  <outline>
    <contour>
      <point x="123" y="1217" type="curve" smooth="yes"/>
      <point x="179" y="1217" type="line" smooth="yes"/>
      <point x="229" y="1217"/>
      <point x="272" y="1240"/>
      <point x="315" y="1275" type="curve" smooth="yes"/>
      <point x="434" y="1371" type="line" smooth="yes"/>
      <point x="444" y="1379"/>
      <point x="457" y="1383"/>
      <point x="469" y="1383" type="curve" smooth="yes"/>
      <point x="481" y="1383"/>
      <point x="492" y="1379"/>
      <point x="504" y="1371" type="curve" smooth="yes"/>
      <point x="622" y="1275" type="line" smooth="yes"/>
      <point x="666" y="1240"/>
      <point x="709" y="1217"/>
      <point x="759" y="1217" type="curve" smooth="yes"/>
      <point x="814" y="1217" type="line" smooth="yes"/>
      <point x="833" y="1217"/>
      <point x="846" y="1240"/>
      <point x="846" y="1263" type="curve" smooth="yes"/>
      <point x="846" y="1275"/>
      <point x="843" y="1286"/>
      <point x="835" y="1297" type="curve" smooth="yes"/>
      <point x="659" y="1527" type="line" smooth="yes"/>
      <point x="621" y="1577"/>
      <point x="565" y="1607"/>
      <point x="513" y="1607" type="curve" smooth="yes"/>
      <point x="423" y="1607" type="line" smooth="yes"/>
      <point x="372" y="1607"/>
      <point x="317" y="1577"/>
      <point x="279" y="1527" type="curve" smooth="yes"/>
      <point x="101" y="1297" type="line" smooth="yes"/>
      <point x="93" y="1286"/>
      <point x="90" y="1275"/>
      <point x="90" y="1263" type="curve" smooth="yes"/>
      <point x="90" y="1240"/>
      <point x="103" y="1217"/>
    </contour>
  </outline>
</glyph>
<glyph name="caron" format="1">
  <advance width="953"/>
  <unicode hex="02C7"/>
  <outline>
    <contour>
      <point x="423" y="1217" type="curve" smooth="yes"/>
      <point x="513" y="1217" type="line" smooth="yes"/>
      <point x="564" y="1217"/>
      <point x="619" y="1247"/>
      <point x="657" y="1297" type="curve" smooth="yes"/>
      <point x="835" y="1527" type="line" smooth="yes"/>
      <point x="843" y="1538"/>
      <point x="846" y="1549"/>
      <point x="846" y="1561" type="curve" smooth="yes"/>
      <point x="846" y="1584"/>
      <point x="833" y="1607"/>
      <point x="813" y="1607" type="curve" smooth="yes"/>
      <point x="757" y="1607" type="line" smooth="yes"/>
      <point x="707" y="1607"/>
      <point x="664" y="1584"/>
      <point x="621" y="1549" type="curve" smooth="yes"/>
      <point x="502" y="1453" type="line" smooth="yes"/>
      <point x="492" y="1445"/>
      <point x="479" y="1441"/>
      <point x="467" y="1441" type="curve" smooth="yes"/>
      <point x="455" y="1441"/>
      <point x="444" y="1445"/>
      <point x="432" y="1453" type="curve" smooth="yes"/>
      <point x="314" y="1549" type="line" smooth="yes"/>
      <point x="270" y="1584"/>
      <point x="227" y="1607"/>
      <point x="177" y="1607" type="curve" smooth="yes"/>
      <point x="122" y="1607" type="line" smooth="yes"/>
      <point x="103" y="1607"/>
      <point x="90" y="1584"/>
      <point x="90" y="1561" type="curve" smooth="yes"/>
      <point x="90" y="1549"/>
      <point x="93" y="1538"/>
      <point x="101" y="1527" type="curve" smooth="yes"/>
      <point x="277" y="1297" type="line" smooth="yes"/>
      <point x="315" y="1247"/>
      <point x="371" y="1217"/>
    </contour>
  </outline>
</glyph>
<glyph name="ring" format="1">
  <advance width="1717"/>
  <unicode hex="02DA"/>
  <outline>
    <contour>
      <point x="859" y="250" type="curve" smooth="yes"/>
      <point x="775" y="250"/>
      <point x="706" y="299"/>
      <point x="708" y="397" type="curve" smooth="yes"/>
      <point x="706" y="502"/>
      <point x="780" y="543"/>
      <point x="859" y="543" type="curve" smooth="yes"/>
      <point x="935" y="543"/>
      <point x="1009" y="502"/>
      <point x="1009" y="397" type="curve" smooth="yes"/>
      <point x="1009" y="298"/>
      <point x="939" y="250"/>
    </contour>
    <contour>
      <point x="860" y="135" type="curve" smooth="yes"/>
      <point x="980" y="135"/>
      <point x="1143" y="206"/>
      <point x="1143" y="397" type="curve" smooth="yes"/>
      <point x="1143" y="593"/>
      <point x="993" y="659"/>
      <point x="860" y="659" type="curve" smooth="yes"/>
      <point x="724" y="659"/>
      <point x="573" y="593"/>
      <point x="573" y="397" type="curve" smooth="yes"/>
      <point x="573" y="205"/>
      <point x="736" y="135"/>
    </contour>
  </outline>
</glyph>
<glyph name="hungarumlaut" format="1">
  <advance width="1745"/>
  <unicode hex="02DD"/>
  <outline>
    <contour>
      <point x="512" y="1171" type="curve" smooth="yes"/>
      <point x="549" y="1171"/>
      <point x="564" y="1171"/>
      <point x="622" y="1171" type="curve" smooth="yes"/>
      <point x="660" y="1171"/>
      <point x="668" y="1193"/>
      <point x="678" y="1210" type="curve" smooth="yes"/>
      <point x="901" y="1557" type="line" smooth="yes"/>
      <point x="908" y="1569"/>
      <point x="913" y="1583"/>
      <point x="913" y="1594" type="curve" smooth="yes"/>
      <point x="913" y="1610"/>
      <point x="905" y="1622"/>
      <point x="885" y="1622" type="curve" smooth="yes"/>
      <point x="608" y="1622" type="line" smooth="yes"/>
      <point x="564" y="1622"/>
      <point x="545" y="1610"/>
      <point x="537" y="1567" type="curve" smooth="yes"/>
      <point x="474" y="1238" type="line" smooth="yes"/>
      <point x="471" y="1224"/>
      <point x="470" y="1212"/>
      <point x="470" y="1203" type="curve" smooth="yes"/>
      <point x="470" y="1176"/>
      <point x="483" y="1171"/>
    </contour>
    <contour>
      <point x="1030" y="1171" type="curve" smooth="yes"/>
      <point x="1067" y="1171"/>
      <point x="1082" y="1171"/>
      <point x="1140" y="1171" type="curve" smooth="yes"/>
      <point x="1178" y="1171"/>
      <point x="1186" y="1193"/>
      <point x="1196" y="1210" type="curve" smooth="yes"/>
      <point x="1419" y="1557" type="line" smooth="yes"/>
      <point x="1426" y="1569"/>
      <point x="1431" y="1583"/>
      <point x="1431" y="1594" type="curve" smooth="yes"/>
      <point x="1431" y="1610"/>
      <point x="1423" y="1622"/>
      <point x="1403" y="1622" type="curve" smooth="yes"/>
      <point x="1126" y="1622" type="line" smooth="yes"/>
      <point x="1082" y="1622"/>
      <point x="1063" y="1610"/>
      <point x="1055" y="1567" type="curve" smooth="yes"/>
      <point x="992" y="1238" type="line" smooth="yes"/>
      <point x="989" y="1224"/>
      <point x="988" y="1212"/>
      <point x="988" y="1203" type="curve" smooth="yes"/>
      <point x="988" y="1176"/>
      <point x="1001" y="1171"/>
    </contour>
  </outline>
</glyph>
<glyph name="quoteleft" format="1">
  <advance width="716"/>
  <unicode hex="2018"/>
  <outline>
    <contour>
      <point x="227" y="781" type="curve" smooth="yes"/>
      <point x="500" y="781" type="line" smooth="yes"/>
      <point x="543" y="781"/>
      <point x="560" y="815"/>
      <point x="560" y="858" type="curve" smooth="yes"/>
      <point x="560" y="1061" type="line" smooth="yes"/>
      <point x="560" y="1099"/>
      <point x="538" y="1131"/>
      <point x="500" y="1131" type="curve" smooth="yes"/>
      <point x="424" y="1131" type="line" smooth="yes"/>
      <point x="409" y="1131"/>
      <point x="407" y="1142"/>
      <point x="407" y="1158" type="curve" smooth="yes"/>
      <point x="407" y="1182"/>
      <point x="420" y="1259"/>
      <point x="489" y="1302" type="curve" smooth="yes"/>
      <point x="532" y="1329"/>
      <point x="560" y="1323"/>
      <point x="560" y="1377" type="curve" smooth="yes"/>
      <point x="560" y="1428" type="line" smooth="yes"/>
      <point x="560" y="1464"/>
      <point x="519" y="1479"/>
      <point x="484" y="1473" type="curve" smooth="yes"/>
      <point x="346" y="1450"/>
      <point x="164" y="1343"/>
      <point x="164" y="1106" type="curve" smooth="yes"/>
      <point x="164" y="858" type="line" smooth="yes"/>
      <point x="164" y="815"/>
      <point x="184" y="781"/>
    </contour>
  </outline>
</glyph>
<glyph name="quoteright" format="1">
  <advance width="716"/>
  <unicode hex="2019"/>
  <outline>
    <contour>
      <point x="241" y="783" type="curve" smooth="yes"/>
      <point x="379" y="806"/>
      <point x="561" y="913"/>
      <point x="561" y="1150" type="curve" smooth="yes"/>
      <point x="561" y="1398" type="line" smooth="yes"/>
      <point x="561" y="1441"/>
      <point x="541" y="1475"/>
      <point x="498" y="1475" type="curve" smooth="yes"/>
      <point x="225" y="1475" type="line" smooth="yes"/>
      <point x="182" y="1475"/>
      <point x="165" y="1441"/>
      <point x="165" y="1398" type="curve" smooth="yes"/>
      <point x="165" y="1195" type="line" smooth="yes"/>
      <point x="165" y="1157"/>
      <point x="187" y="1125"/>
      <point x="225" y="1125" type="curve" smooth="yes"/>
      <point x="301" y="1125" type="line" smooth="yes"/>
      <point x="316" y="1125"/>
      <point x="318" y="1114"/>
      <point x="318" y="1098" type="curve" smooth="yes"/>
      <point x="318" y="1074"/>
      <point x="305" y="997"/>
      <point x="236" y="954" type="curve" smooth="yes"/>
      <point x="193" y="927"/>
      <point x="165" y="933"/>
      <point x="165" y="879" type="curve" smooth="yes"/>
      <point x="165" y="828" type="line" smooth="yes"/>
      <point x="165" y="792"/>
      <point x="206" y="777"/>
    </contour>
  </outline>
</glyph>
<glyph name="fraction" format="1">
  <advance width="1509"/>
  <unicode hex="2044"/>
  <outline>
    <contour>
      <point x="476" y="-207" type="line" smooth="yes"/>
      <point x="498" y="-207"/>
      <point x="520" y="-194"/>
      <point x="530" y="-174" type="curve" smooth="yes"/>
      <point x="1410" y="1614" type="line" smooth="yes"/>
      <point x="1417" y="1629"/>
      <point x="1406" y="1647"/>
      <point x="1389" y="1647" type="curve" smooth="yes"/>
      <point x="1057" y="1647" type="line" smooth="yes"/>
      <point x="1035" y="1647"/>
      <point x="1014" y="1634"/>
      <point x="1004" y="1614" type="curve" smooth="yes"/>
      <point x="124" y="-172" type="line" smooth="yes"/>
      <point x="116" y="-187"/>
      <point x="127" y="-205"/>
      <point x="144" y="-205" type="curve" smooth="yes"/>
    </contour>
  </outline>
</glyph>
